<?xml version="1.0" encoding="UTF-8"?>
<svg xmlns="http://www.w3.org/2000/svg" xmlns:xlink="http://www.w3.org/1999/xlink" width="130px" height="80px" viewBox="0 0 130 80" version="1.1">
<g id="surface1">
<path style=" stroke:none;fill-rule:nonzero;fill:rgb(0%,0%,0%);fill-opacity:1;" d="M 70.382812 0.171875 C 69.242188 0.375 67.71875 1.359375 67.335938 2.125 C 67.183594 2.484375 67.03125 3.484375 67.03125 4.359375 L 67.03125 5.9375 L 38.570312 5.96875 L 10.105469 6.015625 L 9.625 6.390625 C 9.164062 6.71875 9.140625 7.046875 9.140625 10.46875 L 9.140625 14.203125 L 9.800781 14.515625 C 10.460938 14.828125 10.765625 14.84375 18.15625 14.84375 L 25.820312 14.84375 L 26 15.734375 C 26.226562 16.921875 27.015625 17.75 28.4375 18.25 C 29.476562 18.640625 29.859375 18.671875 32.703125 18.734375 L 35.800781 18.78125 L 35.800781 23.75 L 32.273438 23.75 C 27.21875 23.75 27.574219 23.46875 27.472656 27.75 C 27.398438 31.390625 27.5 31.859375 28.589844 32.171875 C 29.023438 32.28125 31.96875 32.34375 37.832031 32.34375 C 43.695312 32.34375 46.640625 32.28125 47.074219 32.171875 C 48.164062 31.859375 48.265625 31.390625 48.191406 27.75 C 48.089844 23.453125 48.445312 23.75 43.265625 23.75 L 39.609375 23.75 L 39.609375 18.75 L 42.351562 18.75 C 45.578125 18.75 46.667969 18.59375 47.886719 17.9375 C 49.054688 17.3125 49.410156 16.84375 49.640625 15.734375 L 49.816406 14.84375 L 83.28125 14.84375 L 83.28125 45.625 L 75.15625 45.625 L 75.15625 40.078125 C 75.15625 36.359375 75.054688 34.421875 74.875 34.171875 C 74.367188 33.5 73.757812 33.4375 66.648438 33.4375 C 60 33.4375 59.945312 33.4375 59.261719 33.796875 C 58.398438 34.265625 58.347656 35.09375 59.1875 35.5 C 59.667969 35.75 60.378906 35.78125 65.53125 35.78125 L 71.347656 35.78125 L 71.347656 47.296875 L 71.929688 47.625 L 72.515625 47.96875 L 104.863281 47.96875 L 104.863281 77.65625 L 22.625 77.65625 L 22.546875 74.203125 C 22.46875 70.796875 22.46875 70.75 21.859375 70.453125 C 21.148438 70.09375 20.109375 70.078125 19.347656 70.40625 C 18.789062 70.640625 18.789062 70.703125 18.789062 74.15625 L 18.789062 77.65625 L 1.242188 77.65625 L 0.632812 78.046875 C -0.179688 78.53125 -0.179688 79.125 0.632812 79.609375 L 1.242188 80 L 128.757812 80 L 129.367188 79.609375 C 129.71875 79.40625 130 79.046875 130 78.828125 C 130 78.609375 129.71875 78.25 129.367188 78.046875 L 128.757812 77.65625 L 108.671875 77.65625 L 108.671875 46.265625 L 108.011719 45.953125 C 107.375 45.65625 106.996094 45.625 103.0625 45.625 L 98.769531 45.625 L 98.769531 14.84375 L 101.5625 14.84375 C 104.585938 14.84375 105.421875 14.703125 105.851562 14.109375 C 106.03125 13.875 106.132812 12.484375 106.132812 10.3125 C 106.132812 6.921875 106.132812 6.890625 105.523438 6.453125 C 104.914062 6.03125 104.835938 6.015625 101.84375 5.96875 L 98.769531 5.90625 L 98.769531 4.15625 C 98.769531 2.0625 98.3125 1.3125 96.535156 0.546875 L 95.417969 0.078125 L 90.3125 0.03125 C 87.523438 0 84.957031 0.015625 84.625 0.078125 C 84.320312 0.125 83.867188 0.375 83.636719 0.640625 C 83.304688 1.046875 83.304688 1.203125 83.5625 1.578125 C 83.710938 1.84375 84.070312 2.109375 84.320312 2.1875 C 84.578125 2.28125 86.886719 2.34375 89.476562 2.34375 C 93.386719 2.34375 94.226562 2.390625 94.554688 2.59375 C 94.859375 2.78125 94.960938 3.1875 94.960938 4.390625 L 94.960938 5.9375 L 70.839844 5.9375 L 70.839844 4.40625 C 70.839844 2.328125 70.8125 2.34375 74.953125 2.34375 C 77.796875 2.34375 78.203125 2.3125 78.8125 2.015625 C 79.296875 1.78125 79.472656 1.546875 79.472656 1.171875 C 79.472656 0.796875 79.296875 0.5625 78.8125 0.328125 C 78.203125 0.03125 77.820312 0 74.671875 0.015625 C 72.769531 0.015625 70.839844 0.09375 70.382812 0.171875 Z M 27.929688 9.109375 C 27.140625 9.5625 25.617188 10.40625 24.554688 10.984375 L 22.625 12.0625 L 19.296875 10.21875 C 17.492188 9.203125 15.996094 8.359375 15.996094 8.328125 C 15.996094 8.296875 18.992188 8.28125 22.671875 8.28125 L 29.328125 8.296875 Z M 52.558594 8.328125 C 52.558594 8.359375 51.0625 9.203125 49.257812 10.21875 L 45.929688 12.0625 L 44 10.984375 C 42.9375 10.40625 41.414062 9.5625 40.625 9.109375 L 39.226562 8.296875 L 45.90625 8.28125 C 49.5625 8.28125 52.558594 8.296875 52.558594 8.328125 Z M 75.613281 8.421875 C 75.585938 8.484375 74.140625 9.34375 72.414062 10.296875 L 69.289062 12.03125 L 68.453125 11.609375 C 66.445312 10.578125 62.765625 8.5 62.742188 8.390625 C 62.714844 8.328125 65.632812 8.28125 69.214844 8.28125 C 72.796875 8.28125 75.664062 8.34375 75.613281 8.421875 Z M 99 8.390625 C 98.972656 8.515625 95.140625 10.671875 93.3125 11.609375 L 92.472656 12.046875 L 89.324219 10.296875 C 87.597656 9.34375 86.175781 8.484375 86.125 8.421875 C 86.074219 8.34375 88.945312 8.28125 92.523438 8.28125 C 96.101562 8.28125 99.023438 8.328125 99 8.390625 Z M 37.601562 10.578125 L 40.878906 12.421875 L 37.578125 12.46875 C 35.773438 12.484375 32.804688 12.484375 30.976562 12.46875 L 27.675781 12.421875 L 30.925781 10.59375 C 32.703125 9.59375 34.175781 8.765625 34.226562 8.765625 C 34.277344 8.75 35.773438 9.578125 37.601562 10.578125 Z M 61.394531 10.859375 L 64.1875 12.421875 L 60.914062 12.46875 C 59.109375 12.484375 56.140625 12.484375 54.3125 12.46875 L 50.984375 12.421875 L 54.234375 10.609375 C 57.40625 8.828125 57.535156 8.796875 58.042969 9.046875 C 58.347656 9.1875 59.84375 10 61.394531 10.859375 Z M 85.566406 11.390625 L 87.46875 12.484375 L 80.945312 12.5 C 77.339844 12.5 74.394531 12.46875 74.394531 12.421875 C 74.394531 12.390625 75.84375 11.546875 77.617188 10.5625 L 80.84375 8.765625 L 82.242188 9.53125 C 83.027344 9.9375 84.523438 10.78125 85.566406 11.390625 Z M 17.519531 12.4375 C 17.519531 12.46875 16.503906 12.5 15.234375 12.5 L 12.949219 12.5 L 12.949219 9.8125 L 15.234375 11.109375 C 16.503906 11.8125 17.519531 12.40625 17.519531 12.4375 Z M 102.25 12.453125 C 102.171875 12.484375 101.105469 12.484375 99.835938 12.46875 L 97.523438 12.421875 L 102.195312 9.859375 L 102.273438 11.125 C 102.324219 11.8125 102.296875 12.40625 102.25 12.453125 Z M 45.957031 15.28125 C 45.957031 15.515625 45.78125 15.875 45.550781 16.0625 C 45.171875 16.40625 45.117188 16.40625 37.832031 16.40625 C 30.546875 16.40625 30.492188 16.40625 30.113281 16.0625 C 29.882812 15.875 29.707031 15.515625 29.707031 15.28125 L 29.707031 14.84375 L 45.957031 14.84375 Z M 94.960938 15.796875 L 94.960938 16.734375 L 93.894531 16.25 C 93.285156 15.984375 92.398438 15.5625 91.914062 15.3125 L 91.023438 14.859375 L 93.007812 14.84375 L 94.960938 14.84375 Z M 90.71875 17.71875 C 92.828125 18.71875 93.617188 19.171875 93.4375 19.3125 C 93.109375 19.546875 87.445312 22.1875 87.242188 22.1875 C 87.164062 22.1875 87.089844 20.8125 87.089844 19.140625 C 87.089844 16.59375 87.140625 16.09375 87.445312 16.203125 C 87.625 16.265625 89.09375 16.953125 90.71875 17.71875 Z M 94.960938 24.765625 L 94.960938 27.828125 L 91.734375 26.3125 C 89.933594 25.46875 88.460938 24.765625 88.410156 24.75 C 88.308594 24.703125 94.53125 21.734375 94.78125 21.734375 C 94.882812 21.71875 94.960938 23.09375 94.960938 24.765625 Z M 44.433594 28.046875 L 44.433594 30 L 31.230469 30 L 31.230469 26.09375 L 44.433594 26.09375 Z M 90.515625 28.6875 C 92.269531 29.515625 93.691406 30.21875 93.691406 30.25 C 93.691406 30.3125 87.367188 33.28125 87.21875 33.28125 C 87.140625 33.28125 87.089844 31.90625 87.089844 30.234375 C 87.089844 28.5625 87.140625 27.1875 87.21875 27.1875 C 87.292969 27.1875 88.789062 27.859375 90.515625 28.6875 Z M 94.859375 38.703125 C 94.78125 38.75 93.3125 38.09375 91.53125 37.265625 L 88.359375 35.75 L 91.585938 34.234375 L 94.835938 32.703125 L 94.910156 35.671875 C 94.9375 37.296875 94.910156 38.671875 94.859375 38.703125 Z M 89.730469 39.375 C 91 39.96875 92.421875 40.65625 92.878906 40.890625 L 93.742188 41.328125 L 90.71875 42.75 C 89.070312 43.53125 87.570312 44.21875 87.421875 44.28125 C 87.164062 44.375 87.089844 43.734375 87.089844 41.34375 C 87.089844 39.65625 87.164062 38.28125 87.242188 38.28125 C 87.34375 38.28125 88.4375 38.765625 89.730469 39.375 Z M 94.882812 45.578125 C 94.808594 45.609375 93.945312 45.625 92.90625 45.59375 L 91.050781 45.546875 L 92.953125 44.65625 L 94.835938 43.75 L 94.910156 44.625 C 94.960938 45.109375 94.9375 45.53125 94.882812 45.578125 Z M 94.882812 45.578125 "/>
<path style=" stroke:none;fill-rule:nonzero;fill:rgb(0%,0%,0%);fill-opacity:1;" d="M 19.449219 33.765625 L 18.789062 34.078125 L 18.789062 50.609375 C 18.789062 66.96875 18.789062 67.140625 19.296875 67.421875 C 20.007812 67.8125 21.226562 67.78125 21.914062 67.359375 L 22.46875 67.015625 L 22.546875 51.40625 L 22.597656 35.78125 L 38.085938 35.78125 C 53.242188 35.78125 53.574219 35.78125 54.082031 35.46875 C 54.84375 35 54.765625 34.171875 53.929688 33.765625 C 53.269531 33.4375 53.066406 33.4375 36.6875 33.4375 C 20.3125 33.4375 20.109375 33.4375 19.449219 33.765625 Z M 19.449219 33.765625 "/>
<path style=" stroke:none;fill-rule:nonzero;fill:rgb(0%,0%,0%);fill-opacity:1;" d="M 31.738281 41.5625 C 31.304688 41.828125 31.230469 42.078125 31.230469 43.515625 C 31.230469 45.40625 31.535156 45.78125 33.109375 45.78125 C 34.582031 45.78125 35.039062 45.25 35.039062 43.515625 C 35.039062 42.296875 34.960938 42.015625 34.507812 41.65625 C 33.84375 41.140625 32.5 41.09375 31.738281 41.5625 Z M 31.738281 41.5625 "/>
<path style=" stroke:none;fill-rule:nonzero;fill:rgb(0%,0%,0%);fill-opacity:1;" d="M 47.734375 41.671875 C 47.226562 42.0625 47.203125 42.265625 47.277344 43.609375 C 47.378906 45.359375 47.734375 45.78125 49.179688 45.78125 C 50.703125 45.78125 51.035156 45.390625 51.035156 43.546875 C 51.035156 41.609375 50.757812 41.25 49.257812 41.25 C 48.496094 41.25 48.164062 41.34375 47.734375 41.671875 Z M 47.734375 41.671875 "/>
<path style=" stroke:none;fill-rule:nonzero;fill:rgb(0%,0%,0%);fill-opacity:1;" d="M 63.984375 41.5625 C 63.554688 41.828125 63.476562 42.078125 63.476562 43.515625 C 63.476562 45.40625 63.78125 45.78125 65.355469 45.78125 C 66.828125 45.78125 67.285156 45.25 67.285156 43.515625 C 67.285156 42.296875 67.210938 42.015625 66.75 41.65625 C 66.09375 41.140625 64.746094 41.09375 63.984375 41.5625 Z M 63.984375 41.5625 "/>
<path style=" stroke:none;fill-rule:nonzero;fill:rgb(0%,0%,0%);fill-opacity:1;" d="M 31.890625 50.953125 C 31.257812 51.265625 31.230469 51.328125 31.230469 52.96875 C 31.230469 54.609375 31.257812 54.671875 31.890625 54.984375 C 32.726562 55.390625 33.539062 55.40625 34.304688 55.015625 C 34.886719 54.734375 34.914062 54.609375 34.914062 52.96875 C 34.914062 51.328125 34.886719 51.203125 34.304688 50.921875 C 33.539062 50.53125 32.726562 50.546875 31.890625 50.953125 Z M 31.890625 50.953125 "/>
<path style=" stroke:none;fill-rule:nonzero;fill:rgb(0%,0%,0%);fill-opacity:1;" d="M 48.292969 50.734375 C 47.25 50.984375 46.769531 53.703125 47.609375 54.671875 C 48.191406 55.390625 49.28125 55.515625 50.375 54.984375 C 51.007812 54.671875 51.035156 54.609375 51.035156 52.96875 C 51.035156 51.328125 51.007812 51.265625 50.375 50.953125 C 49.714844 50.640625 48.976562 50.5625 48.292969 50.734375 Z M 48.292969 50.734375 "/>
<path style=" stroke:none;fill-rule:nonzero;fill:rgb(0%,0%,0%);fill-opacity:1;" d="M 64.109375 51.015625 C 63.527344 51.359375 63.476562 51.5 63.476562 53.03125 C 63.476562 54.609375 63.5 54.671875 64.136719 54.984375 C 65.050781 55.421875 65.914062 55.390625 66.675781 54.921875 C 67.3125 54.53125 67.335938 54.453125 67.234375 52.875 C 67.15625 51.359375 67.109375 51.203125 66.546875 50.921875 C 65.734375 50.515625 64.847656 50.546875 64.109375 51.015625 Z M 64.109375 51.015625 "/>
<path style=" stroke:none;fill-rule:nonzero;fill:rgb(0%,0%,0%);fill-opacity:1;" d="M 80.589844 50.8125 C 80.285156 50.890625 79.90625 51.140625 79.75 51.34375 C 79.34375 51.921875 79.398438 54.140625 79.851562 54.671875 C 80.4375 55.390625 81.53125 55.515625 82.621094 54.984375 C 83.257812 54.671875 83.28125 54.609375 83.28125 52.96875 C 83.28125 51.328125 83.257812 51.265625 82.621094 50.953125 C 81.882812 50.59375 81.402344 50.5625 80.589844 50.8125 Z M 80.589844 50.8125 "/>
<path style=" stroke:none;fill-rule:nonzero;fill:rgb(0%,0%,0%);fill-opacity:1;" d="M 96.359375 51.015625 C 95.773438 51.359375 95.722656 51.5 95.722656 52.96875 C 95.722656 54.4375 95.773438 54.578125 96.359375 54.921875 C 96.6875 55.140625 97.273438 55.3125 97.625 55.3125 C 97.984375 55.3125 98.566406 55.140625 98.898438 54.921875 C 99.480469 54.578125 99.53125 54.4375 99.53125 52.96875 C 99.53125 51.5 99.480469 51.359375 98.898438 51.015625 C 98.566406 50.796875 97.984375 50.625 97.625 50.625 C 97.273438 50.625 96.6875 50.796875 96.359375 51.015625 Z M 96.359375 51.015625 "/>
<path style=" stroke:none;fill-rule:nonzero;fill:rgb(0%,0%,0%);fill-opacity:1;" d="M 31.738281 60.46875 C 31.304688 60.734375 31.230469 60.984375 31.230469 62.40625 C 31.230469 63.75 31.304688 64.09375 31.6875 64.390625 C 32.375 64.90625 33.667969 64.859375 34.453125 64.3125 C 34.988281 63.9375 35.039062 63.734375 35.039062 62.4375 C 35.039062 61.203125 34.960938 60.921875 34.507812 60.5625 C 33.84375 60.046875 32.5 60 31.738281 60.46875 Z M 31.738281 60.46875 "/>
<path style=" stroke:none;fill-rule:nonzero;fill:rgb(0%,0%,0%);fill-opacity:1;" d="M 47.835938 60.484375 C 47.453125 60.75 47.328125 61.109375 47.277344 62.328125 C 47.175781 63.765625 47.226562 63.890625 47.8125 64.296875 C 48.597656 64.859375 49.890625 64.90625 50.578125 64.390625 C 50.960938 64.09375 51.035156 63.75 51.035156 62.40625 C 51.035156 60.984375 50.960938 60.734375 50.527344 60.46875 C 49.84375 60.046875 48.46875 60.0625 47.835938 60.484375 Z M 47.835938 60.484375 "/>
<path style=" stroke:none;fill-rule:nonzero;fill:rgb(0%,0%,0%);fill-opacity:1;" d="M 63.984375 60.5 C 63.554688 60.796875 63.476562 61.046875 63.476562 62.4375 C 63.476562 63.75 63.554688 64.09375 63.933594 64.390625 C 64.617188 64.90625 65.914062 64.859375 66.703125 64.3125 C 67.234375 63.9375 67.285156 63.734375 67.285156 62.4375 C 67.285156 61.203125 67.210938 60.921875 66.75 60.5625 C 66.066406 60.03125 64.746094 60 63.984375 60.5 Z M 63.984375 60.5 "/>
<path style=" stroke:none;fill-rule:nonzero;fill:rgb(0%,0%,0%);fill-opacity:1;" d="M 80.210938 60.453125 C 79.648438 60.71875 79.601562 60.890625 79.523438 62.3125 C 79.421875 63.765625 79.472656 63.890625 80.054688 64.296875 C 80.84375 64.859375 82.140625 64.90625 82.824219 64.390625 C 83.203125 64.09375 83.28125 63.75 83.28125 62.40625 C 83.28125 60.984375 83.203125 60.734375 82.773438 60.46875 C 82.140625 60.078125 80.96875 60.0625 80.210938 60.453125 Z M 80.210938 60.453125 "/>
<path style=" stroke:none;fill-rule:nonzero;fill:rgb(0%,0%,0%);fill-opacity:1;" d="M 96.28125 60.515625 C 95.796875 60.84375 95.722656 61.046875 95.722656 62.375 C 95.722656 64.140625 95.796875 64.3125 96.738281 64.609375 C 97.652344 64.90625 98.84375 64.671875 99.25 64.125 C 99.40625 63.90625 99.53125 63.109375 99.53125 62.359375 C 99.53125 61.203125 99.453125 60.90625 99 60.5625 C 98.3125 60.03125 97.042969 60 96.28125 60.515625 Z M 96.28125 60.515625 "/>
<path style=" stroke:none;fill-rule:nonzero;fill:rgb(0%,0%,0%);fill-opacity:1;" d="M 32.320312 69.6875 C 31.433594 69.90625 31.230469 70.34375 31.230469 72 C 31.230469 73.40625 31.28125 73.5625 31.8125 73.875 C 32.601562 74.328125 33.640625 74.3125 34.40625 73.828125 C 34.988281 73.484375 35.039062 73.328125 35.039062 72.046875 C 35.039062 70.484375 34.785156 69.96875 33.84375 69.703125 C 33.132812 69.5 33.085938 69.5 32.320312 69.6875 Z M 32.320312 69.6875 "/>
<path style=" stroke:none;fill-rule:nonzero;fill:rgb(0%,0%,0%);fill-opacity:1;" d="M 47.960938 69.984375 L 47.175781 70.46875 L 47.277344 72.046875 C 47.351562 73.484375 47.40625 73.65625 47.960938 73.921875 C 48.726562 74.3125 49.890625 74.296875 50.527344 73.90625 C 50.984375 73.625 51.035156 73.390625 51.035156 71.90625 C 51.035156 70.046875 50.882812 69.828125 49.460938 69.609375 C 48.902344 69.515625 48.625 69.59375 47.960938 69.984375 Z M 47.960938 69.984375 "/>
<path style=" stroke:none;fill-rule:nonzero;fill:rgb(0%,0%,0%);fill-opacity:1;" d="M 64.570312 69.6875 C 63.679688 69.90625 63.476562 70.34375 63.476562 72 C 63.476562 73.40625 63.527344 73.5625 64.0625 73.875 C 64.847656 74.328125 65.890625 74.3125 66.648438 73.828125 C 67.234375 73.484375 67.285156 73.328125 67.285156 72.046875 C 67.285156 70.484375 67.03125 69.96875 66.09375 69.703125 C 65.382812 69.5 65.328125 69.5 64.570312 69.6875 Z M 64.570312 69.6875 "/>
<path style=" stroke:none;fill-rule:nonzero;fill:rgb(0%,0%,0%);fill-opacity:1;" d="M 80.210938 69.984375 L 79.421875 70.46875 L 79.523438 72.046875 C 79.601562 73.484375 79.648438 73.65625 80.210938 73.921875 C 80.96875 74.3125 82.140625 74.296875 82.773438 73.90625 C 83.230469 73.625 83.28125 73.390625 83.28125 71.90625 C 83.28125 70.046875 83.128906 69.828125 81.707031 69.609375 C 81.148438 69.515625 80.867188 69.59375 80.210938 69.984375 Z M 80.210938 69.984375 "/>
<path style=" stroke:none;fill-rule:nonzero;fill:rgb(0%,0%,0%);fill-opacity:1;" d="M 96.8125 69.6875 C 95.925781 69.90625 95.722656 70.34375 95.722656 72 C 95.722656 73.40625 95.773438 73.5625 96.304688 73.875 C 97.09375 74.328125 98.132812 74.3125 98.898438 73.828125 C 99.480469 73.484375 99.53125 73.328125 99.53125 72.046875 C 99.53125 70.484375 99.277344 69.96875 98.335938 69.703125 C 97.625 69.5 97.578125 69.5 96.8125 69.6875 Z M 96.8125 69.6875 "/>
</g>
</svg>
