<?xml version="1.0" encoding="UTF-8"?>
<svg xmlns="http://www.w3.org/2000/svg" xmlns:xlink="http://www.w3.org/1999/xlink" width="80px" height="120px" viewBox="0 0 80 120" version="1.1">
<g id="surface1">
<path style=" stroke:none;fill-rule:nonzero;fill:rgb(0%,0%,0%);fill-opacity:1;" d="M 17.109375 2.132812 C 16.4375 2.507812 12.75 6.679688 12.125 7.757812 C 11.546875 8.765625 11.25 10.03125 11.25 11.390625 C 11.25 12.28125 11.125 12.515625 7.953125 17.226562 C 6.140625 19.945312 4.484375 22.617188 4.25 23.203125 C 3.84375 24.210938 3.828125 24.421875 3.78125 27.984375 C 3.734375 30.960938 3.765625 31.898438 3.96875 32.671875 C 4.265625 33.867188 4.859375 34.757812 5.671875 35.273438 L 6.25 35.625 L 6.25 54.328125 L 5.703125 54.46875 C 5.03125 54.65625 4.234375 55.640625 3.96875 56.648438 C 3.65625 57.75 3.671875 62.460938 4 63.398438 C 4.21875 64.03125 4.21875 64.125 3.90625 64.6875 C 0.984375 70.078125 0.46875 76.546875 2.453125 82.734375 C 3.046875 84.585938 3.375 85.265625 4.515625 86.976562 C 5.65625 88.6875 6.109375 89.179688 7.34375 90.070312 C 9.390625 91.546875 10.59375 91.875 14.0625 91.875 C 15.609375 91.875 16.875 91.945312 16.875 92.015625 C 16.875 92.109375 16.625 92.953125 16.328125 93.890625 C 15.53125 96.351562 14.4375 97.476562 12.78125 97.5 C 11.203125 97.523438 9.234375 98.929688 8.328125 100.710938 C 8.09375 101.179688 7.609375 102.351562 7.265625 103.335938 C 6.890625 104.414062 6.484375 105.234375 6.25 105.398438 C 6.03125 105.5625 5.390625 106.007812 4.8125 106.40625 C 2.25 108.164062 0.734375 112.054688 1.46875 114.9375 C 1.796875 116.203125 2.734375 117.539062 3.546875 117.890625 C 3.96875 118.078125 12.921875 118.125 35.46875 118.078125 L 66.796875 118.007812 L 67.828125 117.398438 C 69.34375 116.507812 70.15625 115.734375 71.21875 114.140625 C 72.1875 112.664062 72.890625 110.929688 73.375 108.75 C 73.78125 106.96875 73.78125 103.03125 73.375 101.25 C 73.015625 99.632812 72.28125 97.617188 71.671875 96.5625 L 71.1875 95.742188 L 73.609375 95.625 C 76.375 95.484375 76.8125 95.273438 77.796875 93.609375 C 78.703125 92.0625 78.78125 91.289062 78.71875 85.40625 L 78.671875 80.273438 L 78.171875 78.703125 C 77.484375 76.523438 76.609375 75.164062 75.1875 74.109375 L 74 73.242188 L 71.296875 73.171875 C 68.609375 73.078125 68.59375 73.078125 68.59375 72.5625 C 68.59375 71.15625 67.953125 60.65625 67.796875 59.53125 C 67.359375 56.320312 65.671875 53.203125 63.578125 51.75 L 62.5 50.976562 L 62.5 43.125 L 60 43.125 L 60 50.625 L 52.953125 50.625 L 37.140625 30.539062 L 21.328125 10.476562 L 21.25 7.757812 C 21.15625 4.664062 20.890625 3.703125 19.84375 2.671875 C 19.15625 1.992188 17.84375 1.734375 17.109375 2.132812 Z M 18.5625 5.90625 C 18.703125 6.117188 18.75 12.679688 18.75 34.03125 L 18.75 61.875 L 6.25 61.875 L 6.25 58.125 L 13.75 58.125 L 13.75 34.382812 C 13.75 15.75 13.796875 10.546875 13.953125 10.242188 C 14.265625 9.609375 17.875 5.648438 18.140625 5.625 C 18.265625 5.625 18.453125 5.742188 18.5625 5.90625 Z M 35.234375 33.046875 L 49.078125 50.625 L 46.453125 50.625 C 43.59375 50.625 42.625 50.859375 41.234375 51.9375 C 40.4375 52.523438 38.796875 54.773438 38.46875 55.664062 C 38.3125 56.109375 38.296875 56.109375 38 55.546875 C 37.828125 55.21875 34 47.953125 29.484375 39.375 L 21.265625 23.789062 L 21.25 19.617188 C 21.25 17.34375 21.28125 15.46875 21.3125 15.46875 C 21.359375 15.46875 27.625 23.367188 35.234375 33.046875 Z M 9.0625 28.710938 C 6.3125 32.835938 6.34375 32.835938 6.28125 28.359375 L 6.234375 25.242188 L 11.171875 17.789062 L 11.21875 21.609375 L 11.265625 25.40625 Z M 29.5 45.445312 C 36.96875 59.648438 37.3125 60.328125 37.25 61.148438 C 37.21875 61.617188 37.015625 68.273438 36.796875 75.9375 C 36.578125 83.601562 36.359375 90.609375 36.3125 91.523438 L 36.234375 93.164062 L 35.5 93.796875 C 35.09375 94.171875 34.640625 94.570312 34.5 94.734375 C 34.28125 94.96875 33.84375 94.78125 31.953125 93.65625 C 29.421875 92.15625 29.65625 92.4375 27.546875 88.242188 C 26.609375 86.414062 26.34375 86.039062 25.40625 85.3125 C 24.453125 84.585938 24.1875 84.492188 22.796875 84.421875 L 21.25 84.328125 L 21.25 81.328125 L 18.75 79.453125 L 18.75 65.671875 L 19.296875 65.53125 C 19.96875 65.34375 20.765625 64.359375 21.03125 63.351562 C 21.203125 62.742188 21.25 59.53125 21.25 46.242188 C 21.25 32.15625 21.28125 29.953125 21.46875 30.234375 C 21.59375 30.421875 25.203125 37.265625 29.5 45.445312 Z M 11.25 42.65625 L 11.25 54.375 L 8.75 54.375 L 8.75 34.570312 L 9.953125 32.765625 C 10.625 31.757812 11.1875 30.9375 11.203125 30.9375 C 11.234375 30.9375 11.25 36.210938 11.25 42.65625 Z M 61.984375 54.75 C 63.578125 55.570312 64.8125 57.421875 65.234375 59.648438 C 65.546875 61.265625 66.09375 71.015625 66.21875 77.039062 C 66.34375 82.453125 66.359375 82.617188 67.40625 83.765625 C 67.8125 84.234375 68.078125 84.257812 72.046875 84.328125 L 76.25 84.398438 L 76.25 87.5625 C 76.25 90.609375 76.234375 90.75 75.859375 91.289062 L 75.484375 91.875 L 38.90625 91.875 L 38.90625 90.375 C 38.90625 88.429688 39.65625 63.140625 39.765625 61.3125 C 39.90625 58.875 40.9375 56.414062 42.234375 55.382812 C 43.46875 54.421875 43.6875 54.398438 52.609375 54.398438 C 60.1875 54.375 61.328125 54.421875 61.984375 54.75 Z M 11.25 76.851562 L 11.25 88.078125 L 10.296875 87.75 C 8.25 87.023438 6.25 84.890625 5.09375 82.21875 C 3.078125 77.460938 3.4375 71.0625 5.953125 66.9375 L 6.75 65.625 L 11.25 65.625 Z M 16.25 73.710938 L 16.25 81.796875 L 18.75 83.671875 L 18.75 88.125 L 13.75 88.125 L 13.75 65.625 L 16.25 65.625 Z M 71.25 78.75 L 71.25 80.625 L 68.75 80.625 L 68.75 76.875 L 71.25 76.875 Z M 74.34375 77.671875 C 74.984375 78.164062 75.9375 79.875 75.9375 80.484375 C 75.9375 80.554688 75.453125 80.625 74.84375 80.625 L 73.75 80.625 L 73.75 78.984375 C 73.75 78.070312 73.78125 77.34375 73.828125 77.34375 C 73.890625 77.34375 74.109375 77.484375 74.34375 77.671875 Z M 24.21875 88.546875 C 24.578125 88.804688 25.25 89.90625 26.171875 91.734375 C 26.953125 93.257812 27.875 94.804688 28.21875 95.179688 C 28.5625 95.53125 29.671875 96.328125 30.6875 96.9375 C 31.78125 97.59375 32.484375 98.132812 32.4375 98.296875 C 31.4375 101.625 31.171875 103.429688 31.296875 105.9375 C 31.4375 108.679688 32.1875 111.46875 33.328125 113.4375 L 33.8125 114.257812 L 19.203125 114.328125 C 11.171875 114.351562 4.453125 114.328125 4.265625 114.257812 C 3.703125 114.070312 3.640625 113.109375 4.109375 112.054688 C 4.65625 110.8125 5.34375 110.085938 6.703125 109.242188 C 8.15625 108.351562 8.4375 107.953125 9.328125 105.46875 C 10.53125 102.140625 11.03125 101.554688 13.015625 101.25 C 14.78125 100.96875 15.90625 100.289062 16.953125 98.859375 C 17.953125 97.5 18.375 96.492188 19.0625 93.867188 C 19.4375 92.460938 19.734375 91.734375 20.3125 90.914062 C 20.84375 90.164062 21.109375 89.554688 21.171875 88.96875 L 21.28125 88.125 L 22.484375 88.125 C 23.296875 88.125 23.84375 88.242188 24.21875 88.546875 Z M 67.53125 96.492188 C 68.984375 97.523438 69.890625 98.835938 70.59375 100.96875 C 71.140625 102.65625 71.171875 102.867188 71.171875 104.976562 C 71.171875 107.015625 71.125 107.367188 70.6875 108.75 C 70.21875 110.226562 69.171875 112.265625 68.90625 112.265625 C 68.828125 112.265625 68.75 110.742188 68.71875 108.890625 C 68.671875 105.210938 68.59375 104.835938 67.59375 103.734375 C 67.171875 103.242188 67 103.242188 55.3125 103.171875 L 43.46875 103.125 L 43.28125 102.398438 C 43.015625 101.4375 41.875 99.984375 41.125 99.65625 C 39.703125 99 38.515625 99.46875 37.421875 101.132812 C 36.609375 102.328125 36.25 103.523438 36.25 105 C 36.25 107.90625 38.0625 110.625 40 110.625 C 41.265625 110.625 42.84375 109.171875 43.28125 107.578125 L 43.46875 106.875 L 46.25 106.875 L 46.25 114.421875 L 42.390625 114.328125 L 38.515625 114.257812 L 37.46875 113.507812 C 36.015625 112.476562 35.109375 111.164062 34.40625 109.03125 C 33.859375 107.34375 33.828125 107.132812 33.828125 105.023438 C 33.828125 102.984375 33.875 102.632812 34.328125 101.203125 C 34.59375 100.335938 35.109375 99.164062 35.453125 98.601562 C 36.140625 97.476562 37.5625 96.234375 38.53125 95.882812 C 38.890625 95.765625 44.875 95.671875 52.8125 95.695312 L 66.484375 95.742188 Z M 40.859375 103.710938 C 41.640625 104.859375 41.09375 106.875 40 106.875 C 39.703125 106.875 39.375 106.664062 39.140625 106.289062 C 38.890625 105.9375 38.75 105.445312 38.75 105 C 38.75 104.554688 38.890625 104.0625 39.140625 103.710938 C 39.375 103.335938 39.703125 103.125 40 103.125 C 40.296875 103.125 40.625 103.335938 40.859375 103.710938 Z M 51.25 110.625 L 51.25 114.375 L 48.75 114.375 L 48.75 106.875 L 51.25 106.875 Z M 56.25 110.625 L 56.25 114.375 L 53.75 114.375 L 53.75 106.875 L 56.25 106.875 Z M 61.25 110.625 L 61.25 114.375 L 58.75 114.375 L 58.75 106.875 L 61.25 106.875 Z M 66.25 110.484375 C 66.25 114.609375 66.34375 114.375 64.75 114.375 L 63.75 114.375 L 63.75 106.875 L 66.25 106.875 Z M 66.25 110.484375 "/>
<path style=" stroke:none;fill-rule:nonzero;fill:rgb(0%,0%,0%);fill-opacity:1;" d="M 43.796875 58.617188 C 42.5 59.578125 42.546875 59.273438 41.84375 72.609375 C 41.515625 79.148438 41.28125 84.84375 41.328125 85.265625 C 41.453125 86.296875 42.25 87.585938 42.9375 87.890625 C 43.328125 88.078125 46.5625 88.125 52.828125 88.078125 L 62.140625 88.007812 L 62.6875 87.375 C 63.03125 86.976562 63.359375 86.296875 63.515625 85.6875 C 63.765625 84.703125 63.75 84.1875 63.15625 72.703125 C 62.453125 59.25 62.5 59.554688 61.1875 58.617188 C 60.546875 58.148438 60.296875 58.125 52.484375 58.125 C 44.65625 58.125 44.4375 58.148438 43.796875 58.617188 Z M 51.25 73.101562 L 51.25 84.304688 L 47.5625 84.46875 C 45.53125 84.5625 43.84375 84.609375 43.8125 84.539062 C 43.78125 84.492188 44.015625 79.382812 44.328125 73.171875 L 44.90625 61.875 L 51.25 61.875 Z M 60.609375 71.882812 C 60.890625 77.414062 61.15625 82.476562 61.203125 83.132812 L 61.296875 84.375 L 53.75 84.375 L 53.75 61.875 L 60.09375 61.875 Z M 60.609375 71.882812 "/>
<path style=" stroke:none;fill-rule:nonzero;fill:rgb(0%,0%,0%);fill-opacity:1;" d="M 23.75 97.5 L 23.75 99.375 L 26.25 99.375 L 26.25 95.625 L 23.75 95.625 Z M 23.75 97.5 "/>
<path style=" stroke:none;fill-rule:nonzero;fill:rgb(0%,0%,0%);fill-opacity:1;" d="M 18.75 105 L 18.75 106.875 L 21.25 106.875 L 21.25 103.125 L 18.75 103.125 Z M 18.75 105 "/>
<path style=" stroke:none;fill-rule:nonzero;fill:rgb(0%,0%,0%);fill-opacity:1;" d="M 13.75 108.75 L 13.75 110.625 L 16.25 110.625 L 16.25 106.875 L 13.75 106.875 Z M 13.75 108.75 "/>
<path style=" stroke:none;fill-rule:nonzero;fill:rgb(0%,0%,0%);fill-opacity:1;" d="M 26.25 108.75 L 26.25 110.625 L 28.75 110.625 L 28.75 106.875 L 26.25 106.875 Z M 26.25 108.75 "/>
</g>
</svg>
