<?xml version="1.0" encoding="UTF-8"?>
<svg xmlns="http://www.w3.org/2000/svg" xmlns:xlink="http://www.w3.org/1999/xlink" width="100px" height="100px" viewBox="0 0 100 100" version="1.1">
<g id="surface1">
<path style=" stroke:none;fill-rule:nonzero;fill:rgb(0%,0%,0%);fill-opacity:1;" d="M 16.601562 12.773438 C 13.300781 13.691406 10.878906 16.40625 10.3125 19.765625 C 10.117188 20.859375 10.3125 23.027344 11.953125 38.242188 L 13.789062 55.488281 L 13.203125 56.679688 C 12.65625 57.792969 12.597656 58.085938 12.519531 60.195312 L 12.460938 62.5 L 11.835938 62.5 C 10.585938 62.519531 8.4375 63.105469 6.835938 63.886719 C 2.753906 65.917969 0 70.371094 0 75 C 0 79.628906 2.714844 84.023438 6.835938 86.09375 C 9.550781 87.460938 9.960938 87.5 20.761719 87.5 L 30.292969 87.5 L 30.761719 87.011719 C 31.191406 86.601562 31.25 86.367188 31.25 85.136719 C 31.25 82.421875 30.78125 81.699219 27.324219 79.082031 L 25.019531 77.34375 L 24.902344 57.890625 L 23.691406 55.46875 L 25.292969 40.507812 C 26.171875 32.304688 26.953125 25.527344 27.011719 25.449219 C 27.089844 25.390625 30.605469 25.878906 34.84375 26.523438 C 42.929688 27.773438 43.535156 27.929688 44.570312 29.042969 C 44.84375 29.335938 46.054688 31.5625 47.265625 33.964844 L 49.453125 38.339844 L 48.339844 49.394531 C 47.734375 55.46875 47.265625 60.898438 47.304688 61.464844 C 47.421875 62.832031 48.261719 64.179688 49.472656 64.921875 C 50.175781 65.351562 50.683594 65.507812 51.757812 65.585938 L 53.125 65.683594 L 53.125 68.75 L 51.015625 68.75 C 47.636719 68.75 45.566406 69.492188 43.535156 71.425781 C 42.285156 72.617188 41.367188 74.179688 40.917969 75.878906 C 39.648438 80.78125 42.753906 85.898438 47.753906 87.207031 C 48.75 87.460938 51.71875 87.5 70.3125 87.5 C 88.90625 87.5 91.875 87.460938 92.871094 87.207031 C 97.871094 85.898438 100.976562 80.78125 99.707031 75.878906 C 99.257812 74.179688 98.339844 72.617188 97.089844 71.425781 C 95.058594 69.492188 92.988281 68.75 89.609375 68.75 L 87.5 68.75 L 87.5 65.625 L 89.902344 65.625 C 91.367188 65.605469 92.558594 65.507812 93.027344 65.351562 C 94.863281 64.6875 96.09375 62.96875 96.09375 61.09375 C 96.09375 59.726562 94.199219 50.292969 93.75 49.414062 C 93.28125 48.496094 92.460938 47.753906 91.40625 47.285156 C 90.585938 46.914062 90.136719 46.875 83.789062 46.875 C 76.738281 46.855469 76.679688 46.855469 76.230469 45.996094 C 76.113281 45.78125 75.507812 43.105469 74.902344 40.039062 C 74.296875 36.972656 73.632812 34.160156 73.4375 33.789062 C 72.96875 32.871094 72.148438 32.128906 71.09375 31.660156 C 70.292969 31.289062 69.824219 31.25 66.191406 31.25 L 62.167969 31.25 L 58.222656 24.902344 C 53.867188 17.949219 53.105469 17.011719 51.015625 16.171875 L 49.902344 15.722656 L 25.449219 15.605469 L 24.628906 14.84375 C 22.578125 12.890625 19.257812 12.050781 16.601562 12.773438 Z M 20.429688 15.917969 C 22.226562 16.445312 23.828125 18.320312 24.140625 20.253906 C 24.238281 20.859375 21.113281 51.621094 20.800781 53.046875 C 20.722656 53.417969 20.644531 53.4375 19.726562 53.242188 C 19.0625 53.105469 18.4375 53.105469 17.773438 53.242188 C 16.855469 53.4375 16.777344 53.417969 16.699219 53.046875 C 16.386719 51.621094 13.261719 20.859375 13.359375 20.253906 C 13.886719 16.953125 17.167969 14.941406 20.429688 15.917969 Z M 49.394531 18.945312 C 50.957031 19.394531 51.425781 19.941406 54.980469 25.625 C 56.855469 28.632812 58.398438 31.113281 58.398438 31.152344 C 58.398438 31.191406 57.1875 31.25 55.722656 31.289062 C 53.203125 31.347656 52.96875 31.386719 52.109375 31.875 C 51.621094 32.1875 51.035156 32.636719 50.820312 32.890625 L 50.449219 33.359375 L 49.394531 31.191406 C 48.808594 30 48.007812 28.515625 47.597656 27.890625 C 46.738281 26.601562 45.15625 25.371094 43.789062 24.921875 C 43.066406 24.6875 28.242188 22.265625 27.5 22.265625 C 27.421875 22.265625 27.34375 21.796875 27.34375 21.230469 C 27.34375 20.683594 27.265625 19.882812 27.167969 19.472656 L 26.992188 18.75 L 37.871094 18.75 C 44.355469 18.75 49.003906 18.828125 49.394531 18.945312 Z M 70.019531 34.492188 C 70.585938 34.726562 70.859375 35.605469 71.972656 41.210938 C 72.578125 44.277344 73.242188 47.089844 73.4375 47.460938 C 73.90625 48.378906 74.726562 49.121094 75.78125 49.589844 C 76.601562 49.960938 77.050781 50 83.359375 50 C 87.265625 50 90.214844 50.078125 90.410156 50.195312 C 90.957031 50.46875 91.132812 51.113281 92.089844 55.839844 C 93.125 61.054688 93.164062 61.542969 92.460938 62.089844 C 91.933594 62.5 91.875 62.5 71.640625 62.5 L 51.347656 62.5 L 50.878906 62.011719 C 50.507812 61.660156 50.390625 61.347656 50.390625 60.703125 C 50.410156 60.234375 50.957031 54.335938 51.640625 47.578125 L 52.871094 35.273438 L 53.925781 34.375 L 61.816406 34.375 C 66.152344 34.375 69.84375 34.433594 70.019531 34.492188 Z M 20.46875 56.777344 C 21.601562 57.617188 21.777344 58.066406 21.835938 60.371094 L 21.914062 62.5 L 15.625 62.5 L 15.625 60.664062 C 15.625 58.144531 16.054688 57.167969 17.480469 56.523438 C 18.261719 56.152344 19.804688 56.289062 20.46875 56.777344 Z M 21.875 72.148438 C 21.875 78.085938 21.914062 78.710938 22.226562 79.0625 C 22.402344 79.277344 23.652344 80.253906 25 81.25 C 27.558594 83.144531 28.125 83.652344 28.125 84.101562 C 28.125 84.511719 11.894531 84.492188 10.292969 84.082031 C 6.914062 83.203125 4.296875 80.605469 3.417969 77.246094 C 2.167969 72.402344 5.234375 67.265625 10.175781 65.9375 C 10.976562 65.722656 12.558594 65.644531 16.5625 65.644531 L 21.875 65.625 Z M 84.375 67.1875 L 84.375 68.75 L 56.25 68.75 L 56.25 65.625 L 84.375 65.625 Z M 93.164062 72.421875 C 94.570312 73.105469 95.390625 73.886719 96.113281 75.234375 C 96.71875 76.367188 96.777344 76.601562 96.777344 78.125 C 96.777344 79.648438 96.71875 79.882812 96.113281 81.015625 C 95.371094 82.382812 94.765625 82.96875 93.28125 83.75 L 92.285156 84.277344 L 48.339844 84.277344 L 47.109375 83.613281 C 45.761719 82.871094 44.960938 82.050781 44.296875 80.664062 C 43.671875 79.375 43.691406 76.835938 44.335938 75.488281 C 45.15625 73.808594 46.777344 72.480469 48.535156 72.050781 C 48.867188 71.972656 58.828125 71.933594 70.703125 71.933594 L 92.285156 71.972656 Z M 93.164062 72.421875 "/>
<path style=" stroke:none;fill-rule:nonzero;fill:rgb(0%,0%,0%);fill-opacity:1;" d="M 17.1875 17.441406 C 16.816406 17.558594 16.054688 18.105469 15.527344 18.652344 C 14.140625 20.019531 13.75 21.484375 14.296875 23.320312 C 14.609375 24.394531 16.230469 26.015625 17.304688 26.328125 C 19.140625 26.875 20.605469 26.484375 21.972656 25.097656 C 23.886719 23.203125 23.945312 20.761719 22.128906 18.75 C 20.859375 17.34375 19.042969 16.855469 17.1875 17.441406 Z M 19.824219 20.800781 C 20.800781 21.757812 20.117188 23.4375 18.75 23.4375 C 17.949219 23.4375 17.1875 22.675781 17.1875 21.875 C 17.1875 21.074219 17.949219 20.3125 18.75 20.3125 C 19.121094 20.3125 19.53125 20.488281 19.824219 20.800781 Z M 19.824219 20.800781 "/>
<path style=" stroke:none;fill-rule:nonzero;fill:rgb(0%,0%,0%);fill-opacity:1;" d="M 55.175781 36.425781 C 54.902344 36.679688 54.6875 37.03125 54.6875 37.1875 C 54.6875 37.34375 54.335938 41.308594 53.90625 45.996094 C 53.476562 50.683594 53.125 54.707031 53.125 54.902344 C 53.125 55.117188 53.339844 55.507812 53.613281 55.761719 L 54.082031 56.25 L 70.917969 56.25 L 71.386719 55.761719 C 71.660156 55.507812 71.875 55.136719 71.875 54.941406 C 71.875 54.0625 70.644531 47.910156 70.390625 47.519531 C 69.804688 46.621094 68.28125 46.738281 67.8125 47.714844 C 67.597656 48.164062 67.617188 48.574219 67.949219 50.46875 C 68.183594 51.699219 68.359375 52.8125 68.359375 52.929688 C 68.359375 53.066406 66.425781 53.125 62.402344 53.125 C 56.855469 53.125 56.445312 53.105469 56.445312 52.773438 C 56.445312 52.597656 56.71875 49.628906 57.03125 46.191406 C 57.34375 42.753906 57.617188 39.746094 57.617188 39.492188 L 57.617188 39.0625 L 61.757812 39.101562 L 65.898438 39.160156 L 66.25 40.996094 C 66.640625 43.105469 67.070312 43.75 68.066406 43.75 C 68.925781 43.75 69.53125 43.066406 69.53125 42.070312 C 69.511719 41.660156 69.316406 40.253906 69.0625 38.984375 C 68.691406 37.128906 68.515625 36.582031 68.164062 36.289062 C 67.773438 35.957031 67.226562 35.9375 61.679688 35.9375 L 55.644531 35.9375 Z M 55.175781 36.425781 "/>
<path style=" stroke:none;fill-rule:nonzero;fill:rgb(0%,0%,0%);fill-opacity:1;" d="M 48.4375 73.691406 C 47.480469 74.003906 45.839844 75.683594 45.546875 76.679688 C 45 78.515625 45.390625 79.980469 46.777344 81.347656 C 47.382812 81.972656 48.046875 82.421875 48.554688 82.578125 C 49.160156 82.753906 52.753906 82.8125 62.480469 82.8125 L 75.605469 82.8125 L 76.074219 82.324219 C 76.386719 82.03125 76.5625 81.621094 76.5625 81.25 C 76.5625 80.878906 76.386719 80.46875 76.074219 80.175781 L 75.605469 79.6875 L 54.589844 79.6875 L 54.589844 76.5625 L 86.035156 76.5625 L 86.035156 79.6875 L 83.339844 79.6875 C 80.742188 79.6875 80.625 79.707031 80.175781 80.175781 C 79.863281 80.46875 79.6875 80.878906 79.6875 81.25 C 79.6875 81.621094 79.863281 82.03125 80.175781 82.324219 L 80.644531 82.8125 L 85.957031 82.8125 C 89.550781 82.8125 91.523438 82.734375 92.070312 82.578125 C 93.144531 82.265625 94.765625 80.644531 95.078125 79.570312 C 95.585938 77.832031 95.253906 76.386719 94.003906 75 C 92.5 73.320312 94.160156 73.4375 70.234375 73.457031 C 55.429688 73.476562 48.925781 73.535156 48.4375 73.691406 Z M 51.074219 77.050781 C 52.050781 78.007812 51.367188 79.6875 50 79.6875 C 49.628906 79.6875 49.21875 79.511719 48.925781 79.199219 C 48.613281 78.90625 48.4375 78.496094 48.4375 78.125 C 48.4375 77.753906 48.613281 77.34375 48.925781 77.050781 C 49.21875 76.738281 49.628906 76.5625 50 76.5625 C 50.371094 76.5625 50.78125 76.738281 51.074219 77.050781 Z M 91.699219 77.050781 C 92.675781 78.007812 91.992188 79.6875 90.625 79.6875 C 89.824219 79.6875 89.0625 78.925781 89.0625 78.125 C 89.0625 77.324219 89.824219 76.5625 90.625 76.5625 C 90.996094 76.5625 91.40625 76.738281 91.699219 77.050781 Z M 91.699219 77.050781 "/>
</g>
</svg>
