<?xml version="1.0" encoding="UTF-8"?>
<svg xmlns="http://www.w3.org/2000/svg" xmlns:xlink="http://www.w3.org/1999/xlink" width="100px" height="100px" viewBox="0 0 100 100" version="1.1">
<g id="surface1">
<path style=" stroke:none;fill-rule:nonzero;fill:rgb(0%,0%,0%);fill-opacity:1;" d="M 67.714844 25.214844 C 66.40625 25.527344 65.761719 25.976562 63.261719 28.4375 C 61.914062 29.765625 60.566406 30.9375 60.273438 31.054688 C 59.921875 31.191406 50.488281 31.25 31.171875 31.25 L 2.617188 31.25 L 1.757812 31.679688 C 1.289062 31.933594 0.722656 32.382812 0.507812 32.675781 C 0.0976562 33.222656 0.0976562 33.417969 0.0976562 45.273438 L 0.0976562 57.324219 L 0.546875 57.96875 C 1.367188 59.101562 1.894531 59.257812 5.410156 59.375 L 8.574219 59.472656 L 7.8125 60.605469 C 4.101562 66.113281 7.519531 73.710938 14.179688 74.824219 C 16.992188 75.273438 20.039062 74.238281 22.148438 72.128906 C 22.753906 71.523438 23.242188 70.957031 23.242188 70.859375 C 23.242188 70.78125 23.828125 71.308594 24.570312 72.050781 C 26.796875 74.316406 29.6875 75.3125 32.539062 74.824219 C 36.113281 74.199219 38.847656 71.914062 39.960938 68.59375 L 40.410156 67.285156 L 68.984375 67.285156 L 69.335938 68.398438 C 70.351562 71.71875 73.261719 74.21875 76.777344 74.804688 C 81.191406 75.546875 85.859375 72.597656 87.050781 68.320312 L 87.363281 67.226562 L 91.972656 67.148438 C 97.207031 67.089844 97.539062 66.992188 98.886719 65.429688 C 99.980469 64.140625 100.019531 63.789062 99.960938 55.371094 L 99.902344 47.753906 L 97.890625 41.113281 C 96.777344 37.460938 95.839844 34.316406 95.761719 34.101562 C 95.585938 33.515625 94.335938 32.226562 93.476562 31.777344 C 92.695312 31.367188 92.5 31.347656 85.722656 31.347656 L 78.769531 31.347656 L 78.066406 31.894531 C 76.953125 32.734375 76.757812 33.300781 76.757812 35.546875 L 76.757812 37.5 L 73.4375 37.5 L 73.4375 27.929688 L 82.011719 27.929688 L 82.402344 27.421875 C 82.636719 27.128906 82.8125 26.777344 82.8125 26.640625 C 82.8125 26.132812 82.363281 25.429688 81.894531 25.214844 C 81.328125 24.960938 68.847656 24.941406 67.714844 25.214844 Z M 70.46875 40.371094 C 70.410156 52.714844 70.410156 52.832031 69.980469 53.613281 C 69.433594 54.628906 68.457031 55.546875 67.480469 55.996094 C 66.757812 56.328125 65.761719 56.347656 54.863281 56.40625 C 43.339844 56.464844 43.007812 56.464844 42.675781 56.835938 C 42.1875 57.382812 42.226562 58.320312 42.753906 58.847656 L 43.183594 59.277344 L 54.257812 59.335938 C 61.347656 59.375 65.820312 59.316406 66.679688 59.179688 C 70.019531 58.671875 72.636719 56.191406 73.242188 52.949219 C 73.339844 52.382812 73.4375 49.316406 73.4375 46.152344 L 73.4375 40.410156 L 75.058594 40.46875 L 76.660156 40.527344 L 76.757812 41.757812 C 76.875 43.164062 77.1875 43.554688 78.242188 43.554688 C 78.691406 43.554688 79.003906 43.398438 79.277344 43.046875 C 79.667969 42.558594 79.6875 42.285156 79.6875 38.359375 L 79.6875 34.179688 L 83.007812 34.179688 L 83.007812 38.515625 C 83.007812 40.917969 83.105469 43.183594 83.203125 43.574219 C 83.457031 44.511719 84.667969 45.878906 85.625 46.308594 C 86.328125 46.621094 86.992188 46.679688 91.445312 46.679688 L 96.464844 46.679688 L 96.777344 47.695312 C 96.933594 48.242188 97.070312 49.394531 97.070312 50.234375 L 97.070312 51.757812 L 95.898438 51.757812 C 94.960938 51.757812 94.667969 51.835938 94.335938 52.1875 C 93.90625 52.65625 93.828125 53.320312 94.140625 53.90625 C 94.375 54.335938 95.332031 54.6875 96.308594 54.6875 L 97.070312 54.6875 L 97.070312 58.007812 L 83.574219 58.007812 L 82.421875 57.421875 C 81.777344 57.089844 80.917969 56.757812 80.507812 56.679688 L 79.785156 56.523438 L 79.6875 52.207031 C 79.589844 48.320312 79.550781 47.851562 79.21875 47.480469 C 78.730469 46.953125 77.675781 46.933594 77.148438 47.460938 C 76.777344 47.832031 76.757812 48.105469 76.757812 52.128906 L 76.757812 56.425781 L 75.566406 56.757812 C 72.597656 57.597656 69.785156 60.527344 69.179688 63.417969 L 69.023438 64.160156 L 54.746094 64.21875 L 40.449219 64.257812 L 40.136719 63.144531 C 39.296875 60.195312 36.875 57.714844 33.964844 56.816406 C 32.851562 56.464844 31.953125 56.445312 17.851562 56.445312 L 2.929688 56.445312 L 2.929688 34.179688 L 31.894531 34.140625 L 60.839844 34.082031 L 61.71875 33.613281 C 62.207031 33.359375 63.652344 32.109375 64.941406 30.839844 C 67.460938 28.378906 68.125 27.949219 69.589844 27.929688 L 70.527344 27.929688 Z M 92.597656 34.6875 C 92.871094 34.960938 93.4375 36.523438 94.257812 39.257812 C 94.941406 41.542969 95.507812 43.496094 95.507812 43.574219 C 95.507812 43.671875 93.574219 43.75 91.210938 43.75 L 86.894531 43.75 L 86.425781 43.261719 L 85.9375 42.792969 L 85.9375 34.160156 L 89.0625 34.21875 C 91.933594 34.277344 92.207031 34.316406 92.597656 34.6875 Z M 18.535156 60.058594 C 20.78125 61.289062 21.972656 63.457031 21.835938 66.015625 C 21.71875 67.851562 21.113281 69.121094 19.726562 70.371094 C 16.640625 73.144531 11.640625 72.148438 9.824219 68.398438 C 9.394531 67.480469 9.296875 67.011719 9.296875 65.722656 C 9.277344 64.335938 9.355469 64.003906 9.921875 62.851562 C 10.644531 61.367188 11.738281 60.351562 13.222656 59.746094 C 14.6875 59.160156 17.128906 59.296875 18.535156 60.058594 Z M 24.21875 59.53125 C 24.21875 59.628906 24.023438 59.882812 23.769531 60.117188 L 23.320312 60.546875 L 22.890625 59.960938 L 22.441406 59.375 L 23.339844 59.375 C 23.828125 59.375 24.21875 59.453125 24.21875 59.53125 Z M 34.140625 60.058594 C 36.210938 61.191406 37.324219 62.929688 37.460938 65.273438 C 37.578125 67.226562 37.148438 68.457031 35.878906 69.84375 C 34.53125 71.328125 33.125 71.972656 31.25 71.972656 C 28.671875 71.953125 26.679688 70.703125 25.546875 68.398438 C 25 67.285156 24.902344 66.914062 24.921875 65.625 C 24.921875 63.4375 25.761719 61.796875 27.558594 60.488281 C 28.75 59.609375 29.609375 59.375 31.445312 59.433594 C 32.851562 59.492188 33.261719 59.589844 34.140625 60.058594 Z M 80.9375 59.941406 C 83.144531 61.035156 84.453125 63.125 84.472656 65.625 C 84.472656 66.894531 84.394531 67.265625 83.828125 68.398438 C 82.695312 70.722656 80.683594 71.972656 78.125 71.953125 C 76.347656 71.933594 75.234375 71.503906 73.925781 70.292969 C 72.617188 69.082031 72.03125 67.8125 71.914062 66.015625 C 71.757812 63.085938 73.339844 60.664062 76.152344 59.628906 C 77.285156 59.21875 79.785156 59.375 80.9375 59.941406 Z M 97.070312 61.992188 C 97.070312 62.851562 96.972656 63.183594 96.601562 63.613281 L 96.132812 64.160156 L 91.757812 64.21875 L 87.402344 64.277344 L 86.953125 62.851562 C 86.699219 62.070312 86.464844 61.308594 86.40625 61.171875 C 86.308594 60.996094 87.441406 60.9375 91.679688 60.9375 L 97.070312 60.9375 Z M 97.070312 61.992188 "/>
<path style=" stroke:none;fill-rule:nonzero;fill:rgb(0%,0%,0%);fill-opacity:1;" d="M 8.769531 39.277344 C 7.890625 39.609375 7.8125 40.078125 7.8125 45.390625 C 7.8125 50.097656 7.832031 50.371094 8.222656 50.859375 C 8.730469 51.503906 9.765625 51.5625 10.351562 50.976562 C 10.722656 50.605469 10.742188 50.332031 10.742188 45.429688 C 10.742188 42.597656 10.683594 40.117188 10.625 39.941406 C 10.527344 39.6875 9.53125 39.023438 9.335938 39.082031 C 9.296875 39.082031 9.042969 39.179688 8.769531 39.277344 Z M 8.769531 39.277344 "/>
<path style=" stroke:none;fill-rule:nonzero;fill:rgb(0%,0%,0%);fill-opacity:1;" d="M 16.679688 39.257812 C 15.683594 39.648438 15.625 39.941406 15.625 45.332031 C 15.625 50.097656 15.644531 50.371094 16.035156 50.859375 C 16.542969 51.503906 17.578125 51.5625 18.164062 50.976562 C 18.535156 50.605469 18.554688 50.332031 18.554688 45.332031 C 18.554688 40.605469 18.515625 40.039062 18.222656 39.6875 C 17.792969 39.199219 17.226562 39.042969 16.679688 39.257812 Z M 16.679688 39.257812 "/>
<path style=" stroke:none;fill-rule:nonzero;fill:rgb(0%,0%,0%);fill-opacity:1;" d="M 24.492188 39.257812 C 23.496094 39.648438 23.4375 39.941406 23.4375 45.332031 C 23.4375 50.097656 23.457031 50.371094 23.847656 50.859375 C 24.355469 51.503906 25.390625 51.5625 25.976562 50.976562 C 26.347656 50.605469 26.367188 50.332031 26.367188 45.332031 C 26.367188 40.605469 26.328125 40.039062 26.035156 39.6875 C 25.605469 39.199219 25.039062 39.042969 24.492188 39.257812 Z M 24.492188 39.257812 "/>
<path style=" stroke:none;fill-rule:nonzero;fill:rgb(0%,0%,0%);fill-opacity:1;" d="M 32.304688 39.257812 C 31.308594 39.648438 31.25 39.941406 31.25 45.332031 C 31.25 50.097656 31.269531 50.371094 31.660156 50.859375 C 32.167969 51.503906 33.203125 51.5625 33.789062 50.976562 C 34.160156 50.605469 34.179688 50.332031 34.179688 45.332031 C 34.179688 40.605469 34.140625 40.039062 33.847656 39.6875 C 33.417969 39.199219 32.851562 39.042969 32.304688 39.257812 Z M 32.304688 39.257812 "/>
<path style=" stroke:none;fill-rule:nonzero;fill:rgb(0%,0%,0%);fill-opacity:1;" d="M 40.039062 39.316406 C 39.101562 39.785156 39.0625 40.15625 39.101562 45.527344 C 39.160156 50.15625 39.199219 50.585938 39.53125 50.957031 C 39.785156 51.230469 40.136719 51.367188 40.644531 51.367188 C 41.972656 51.367188 41.992188 51.230469 41.992188 45.195312 C 41.992188 40.410156 41.953125 39.882812 41.660156 39.609375 C 41.132812 39.140625 40.585938 39.042969 40.039062 39.316406 Z M 40.039062 39.316406 "/>
<path style=" stroke:none;fill-rule:nonzero;fill:rgb(0%,0%,0%);fill-opacity:1;" d="M 47.949219 39.257812 C 46.992188 39.628906 46.972656 39.765625 46.972656 45.3125 C 46.972656 50.175781 46.992188 50.566406 47.34375 50.957031 C 47.832031 51.484375 49.023438 51.523438 49.472656 51.015625 C 49.765625 50.703125 49.804688 50 49.804688 45.273438 C 49.804688 40.410156 49.765625 39.882812 49.472656 39.609375 C 49.003906 39.199219 48.417969 39.0625 47.949219 39.257812 Z M 47.949219 39.257812 "/>
<path style=" stroke:none;fill-rule:nonzero;fill:rgb(0%,0%,0%);fill-opacity:1;" d="M 55.859375 39.199219 C 55.703125 39.257812 55.410156 39.433594 55.234375 39.609375 C 54.921875 39.882812 54.882812 40.410156 54.882812 45.3125 C 54.882812 50.3125 54.902344 50.742188 55.234375 51.035156 C 55.761719 51.503906 56.894531 51.464844 57.34375 50.957031 C 57.695312 50.566406 57.714844 50.175781 57.714844 45.292969 C 57.714844 40.3125 57.695312 40.039062 57.324219 39.667969 C 56.875 39.238281 56.289062 39.042969 55.859375 39.199219 Z M 55.859375 39.199219 "/>
<path style=" stroke:none;fill-rule:nonzero;fill:rgb(0%,0%,0%);fill-opacity:1;" d="M 63.671875 39.199219 C 63.515625 39.257812 63.222656 39.433594 63.046875 39.609375 C 62.734375 39.882812 62.695312 40.390625 62.695312 45.195312 C 62.695312 51.230469 62.714844 51.367188 64.042969 51.367188 C 64.550781 51.367188 64.902344 51.230469 65.15625 50.957031 C 65.507812 50.566406 65.527344 50.175781 65.527344 45.292969 C 65.527344 40.3125 65.507812 40.039062 65.136719 39.667969 C 64.6875 39.238281 64.101562 39.042969 63.671875 39.199219 Z M 63.671875 39.199219 "/>
<path style=" stroke:none;fill-rule:nonzero;fill:rgb(0%,0%,0%);fill-opacity:1;" d="M 14.628906 64.589844 C 13.242188 65.9375 13.085938 66.152344 13.085938 66.816406 C 13.085938 67.675781 13.613281 68.164062 14.511719 68.164062 C 14.960938 68.164062 15.410156 67.851562 16.523438 66.738281 C 18.242188 65.058594 18.496094 64.375 17.714844 63.59375 C 16.855469 62.734375 16.347656 62.910156 14.628906 64.589844 Z M 14.628906 64.589844 "/>
<path style=" stroke:none;fill-rule:nonzero;fill:rgb(0%,0%,0%);fill-opacity:1;" d="M 29.140625 63.535156 C 28.339844 64.394531 28.554688 64.980469 30.234375 66.660156 C 31.484375 67.890625 31.855469 68.164062 32.363281 68.164062 C 32.792969 68.164062 33.105469 68.007812 33.378906 67.65625 C 34.101562 66.738281 33.925781 66.289062 32.265625 64.609375 C 30.566406 62.910156 29.921875 62.695312 29.140625 63.535156 Z M 29.140625 63.535156 "/>
<path style=" stroke:none;fill-rule:nonzero;fill:rgb(0%,0%,0%);fill-opacity:1;" d="M 76.074219 63.574219 C 75.234375 64.394531 75.410156 64.941406 77.109375 66.640625 C 78.378906 67.910156 78.75 68.164062 79.257812 68.164062 C 80.078125 68.164062 80.664062 67.558594 80.664062 66.738281 C 80.664062 66.171875 80.429688 65.859375 79.121094 64.589844 C 77.402344 62.910156 76.894531 62.734375 76.074219 63.574219 Z M 76.074219 63.574219 "/>
</g>
</svg>
