<?xml version="1.0" standalone="no"?>
<!DOCTYPE svg PUBLIC "-//W3C//DTD SVG 20010904//EN"
 "http://www.w3.org/TR/2001/REC-SVG-20010904/DTD/svg10.dtd">
<svg version="1.0" xmlns="http://www.w3.org/2000/svg"
 width="1746.000000pt" height="1563.000000pt" viewBox="0 0 1746.000000 1563.000000"
 preserveAspectRatio="xMidYMid meet">

<g transform="translate(0.000000,1563.000000) scale(0.100000,-0.100000)"
fill="#000000" stroke="none">
<path d="M8380 15359 c-348 -16 -688 -61 -1050 -138 -508 -109 -867 -224
-1290 -416 -201 -91 -463 -222 -573 -287 -26 -15 -50 -28 -53 -28 -11 0 -314
-186 -404 -249 -371 -256 -689 -514 -952 -772 -319 -314 -568 -605 -789 -924
-164 -236 -186 -271 -391 -625 -343 -591 -665 -1536 -762 -2235 -79 -570 -89
-1043 -37 -1637 30 -329 42 -405 136 -838 90 -411 197 -742 380 -1170 67 -158
222 -468 295 -590 48 -82 59 -124 33 -126 -7 -1 -578 -2 -1268 -3 l-1255 -1 2
-2352 3 -2353 8315 1 8315 1 0 2304 c0 1267 -4 2325 -8 2352 l-8 47 -1264 0
c-695 0 -1266 4 -1269 8 -3 5 29 69 70 143 183 328 347 702 494 1129 201 580
339 1423 340 2065 0 419 -51 941 -131 1338 -194 962 -592 1864 -1171 2654
-161 220 -274 354 -508 603 -246 260 -227 242 -415 411 -194 176 -209 187
-460 376 -352 264 -641 443 -992 614 -388 189 -550 256 -866 359 -828 270
-1617 379 -2467 339z m895 -332 c391 -47 693 -99 918 -157 636 -163 913 -264
1402 -514 524 -268 986 -585 1370 -939 327 -302 520 -513 846 -927 241 -306
545 -822 709 -1205 50 -118 206 -535 248 -665 126 -387 230 -883 279 -1336 24
-224 24 -844 -1 -1099 -37 -390 -75 -629 -155 -981 -55 -242 -171 -613 -263
-844 -53 -131 -189 -433 -231 -510 -13 -25 -64 -119 -112 -210 -112 -210 -217
-393 -294 -510 -34 -51 -61 -98 -61 -104 0 -20 352 -26 1511 -26 1124 0 1256
-3 1263 -29 6 -18 11 -2490 8 -3419 l-2 -622 -7984 2 c-4391 2 -7988 7 -7993
11 -10 10 -17 3710 -8 3915 l7 142 1378 0 c929 0 1381 3 1385 10 4 6 -79 160
-183 343 -373 653 -518 981 -692 1564 -28 94 -57 203 -65 241 -8 38 -28 129
-45 203 -41 182 -55 264 -89 544 -42 338 -55 530 -55 840 -1 429 33 745 135
1244 77 377 128 554 286 981 99 267 101 272 249 565 118 232 173 333 264 480
23 39 66 108 94 155 75 125 369 512 524 690 157 179 481 505 628 632 91 78
261 211 492 384 130 98 399 268 570 361 208 112 612 310 739 361 139 57 489
172 669 221 442 118 686 162 1119 200 127 11 250 22 275 25 105 9 750 -4 865
-17z"/>
<path d="M8632 14858 c-9 -9 -10 -95 -6 -347 4 -204 2 -397 -4 -491 -6 -85 -8
-167 -5 -182 l5 -28 133 0 c112 0 134 2 139 16 3 9 6 154 6 322 0 169 5 395
10 502 9 179 9 196 -7 208 -23 16 -254 17 -271 0z"/>
<path d="M9170 14851 c0 -57 -85 -609 -125 -806 -22 -111 -30 -176 -26 -216 1
-19 45 -29 238 -59 165 -25 309 -27 342 -4 71 50 129 359 85 447 -9 18 -25 42
-36 54 -26 28 -18 48 28 75 19 11 40 33 46 47 5 14 12 85 15 156 4 119 3 133
-17 163 -12 20 -39 41 -64 53 -57 25 -225 64 -357 84 -125 18 -129 18 -129 6z
m300 -256 c19 -35 6 -143 -20 -169 -16 -17 -21 -18 -36 -5 -13 11 -16 25 -11
79 9 111 37 151 67 95z m-50 -380 c10 -12 9 -35 -4 -118 -19 -112 -31 -133
-70 -123 -28 7 -33 27 -16 71 6 15 15 59 21 98 6 40 13 75 16 80 7 12 40 8 53
-8z"/>
<path d="M8120 14834 c-183 -22 -329 -44 -356 -55 -23 -8 -26 -13 -20 -47 31
-204 37 -297 32 -467 -8 -243 -12 -274 -44 -308 -23 -24 -27 -37 -27 -85 1
-74 22 -299 30 -312 7 -11 100 -13 158 -4 42 7 47 25 26 94 -7 21 -9 49 -6 62
6 23 13 25 169 43 90 10 183 19 208 19 l45 1 16 -65 c21 -85 44 -98 137 -82
35 6 66 13 69 16 3 2 -7 80 -21 173 -20 125 -32 175 -47 196 -31 42 -36 69
-69 332 -40 316 -60 466 -66 488 -7 21 -64 21 -234 1z m-38 -241 c23 -26 64
-330 70 -523 l3 -75 -52 -3 -53 -3 0 223 c0 123 -5 256 -10 297 -7 53 -7 78 1
88 15 17 23 17 41 -4z"/>
<path d="M7320 14718 c-118 -24 -150 -38 -150 -61 0 -12 25 -121 56 -242 72
-280 71 -278 49 -273 -18 3 -30 28 -131 293 -36 94 -71 176 -77 184 -14 16
-58 11 -162 -20 -73 -21 -76 -23 -70 -48 3 -14 21 -55 39 -91 121 -240 167
-335 200 -407 20 -45 56 -117 81 -159 61 -108 64 -124 26 -181 -33 -50 -40
-93 -17 -112 17 -14 61 -8 151 19 33 10 79 23 103 29 26 7 60 29 87 55 l45 43
0 78 c0 91 -13 176 -81 535 -28 146 -55 289 -61 318 -10 57 -10 57 -88 40z"/>
<path d="M9967 14703 c-3 -5 -8 -30 -12 -58 -13 -102 -120 -557 -181 -770 -43
-152 -43 -159 1 -179 41 -20 333 -87 387 -89 l39 -2 31 94 c33 104 33 105 -36
115 -65 10 -105 26 -116 46 -13 25 4 144 25 177 14 20 22 24 48 19 18 -3 49
-8 69 -12 35 -6 38 -4 57 34 11 21 23 62 27 90 6 45 4 51 -17 65 -13 8 -40 18
-60 21 -69 12 -73 21 -54 111 9 44 17 81 19 83 11 10 99 2 127 -12 26 -13 35
-14 45 -4 18 20 54 125 54 159 0 37 -2 38 -208 83 -153 35 -236 44 -245 29z"/>
<path d="M10686 14522 c-3 -6 -19 -51 -35 -100 -29 -88 -163 -427 -215 -546
-32 -71 -71 -126 -92 -126 -15 0 -116 -149 -108 -161 5 -9 81 -32 214 -65 l94
-23 23 21 c37 35 66 93 163 335 51 126 103 256 117 290 35 88 44 98 72 83 18
-9 21 -17 16 -38 -8 -32 -152 -416 -196 -522 -17 -41 -43 -107 -58 -147 -23
-64 -24 -74 -11 -87 14 -15 214 -106 231 -106 15 0 47 74 74 171 15 52 40 126
57 164 16 39 65 161 108 271 44 111 93 232 110 269 49 106 53 99 -95 161 -285
120 -456 177 -469 156z"/>
<path d="M6475 14436 c-113 -37 -277 -105 -347 -145 -53 -29 -59 -47 -29 -89
10 -15 21 -40 25 -57 10 -41 117 -294 160 -380 20 -38 43 -92 52 -120 9 -27
35 -90 59 -140 23 -49 50 -114 60 -142 24 -77 21 -77 303 46 188 81 272 142
272 196 0 78 -151 414 -219 485 -47 49 -64 50 -186 10 -143 -48 -150 -48 -174
-9 -56 92 -33 142 84 179 43 13 80 31 83 39 7 19 -17 133 -31 148 -9 9 -35 4
-112 -21z m151 -550 c32 -57 97 -254 90 -272 -4 -11 -13 -13 -28 -9 -37 12
-55 34 -67 82 -7 25 -21 63 -31 84 -27 52 -29 162 -3 157 10 -2 27 -21 39 -42z"/>
<path d="M11487 14118 c-13 -24 -50 -90 -82 -148 -169 -305 -236 -423 -255
-450 -50 -71 -130 -216 -130 -237 0 -16 12 -32 38 -49 50 -34 272 -164 297
-174 11 -4 46 -20 77 -34 83 -38 119 -35 167 14 22 23 57 75 79 118 49 98 122
234 132 247 4 6 11 38 15 71 10 90 -25 144 -125 194 -61 31 -100 61 -100 78 0
7 31 67 70 133 95 162 94 160 28 202 -142 91 -176 97 -211 35z m58 -578 c8
-26 -101 -236 -137 -263 -29 -22 -58 -13 -58 18 0 12 18 50 40 84 22 34 40 64
40 66 0 3 14 30 31 60 24 42 36 55 54 55 15 0 26 -8 30 -20z"/>
<path d="M5295 13822 c-119 -41 -205 -117 -257 -228 -24 -50 -29 -72 -24 -100
9 -45 70 -163 130 -251 26 -37 72 -104 101 -148 136 -201 193 -266 259 -296
122 -55 331 29 411 166 83 140 43 254 -200 580 -123 164 -202 245 -267 275
-53 24 -88 24 -153 2z m28 -236 c14 -13 46 -55 70 -92 25 -38 90 -130 146
-204 106 -140 165 -245 159 -282 -3 -21 -5 -20 -41 12 -48 42 -98 107 -222
290 -54 80 -113 167 -132 194 -31 45 -41 84 -26 99 11 11 19 8 46 -17z"/>
<path d="M12213 13658 c-21 -29 -92 -125 -158 -212 -66 -87 -140 -187 -165
-222 -56 -77 -126 -167 -202 -258 -68 -81 -67 -82 23 -153 51 -41 150 -103
162 -103 3 0 20 26 37 58 17 32 62 98 101 146 38 49 73 95 77 103 12 20 82 30
82 11 0 -8 -56 -92 -125 -186 -69 -95 -125 -176 -125 -180 0 -4 28 -26 63 -49
34 -23 78 -57 96 -77 19 -20 40 -36 45 -35 6 0 30 26 53 57 24 31 63 84 87
117 25 33 62 83 84 111 22 28 92 124 157 215 165 230 190 261 225 284 16 11
30 25 30 31 0 24 -202 199 -213 183 -67 -96 -231 -273 -248 -267 -26 8 -20 33
21 93 112 167 150 226 150 235 0 10 -82 78 -140 115 -66 43 -75 42 -117 -17z"/>
<path d="M6042 13637 c-63 -35 -127 -74 -144 -88 l-31 -25 33 -63 c32 -59 35
-62 63 -57 44 9 167 70 211 105 21 17 47 31 58 31 17 0 19 5 13 33 -15 67 -48
127 -69 127 -12 0 -72 -29 -134 -63z"/>
<path d="M4680 13334 c-74 -62 -130 -114 -130 -123 0 -4 34 -45 76 -91 121
-135 171 -220 131 -220 -21 0 -88 52 -119 91 -14 19 -53 62 -86 97 -51 53 -63
62 -79 53 -10 -5 -56 -48 -102 -95 l-84 -85 99 -103 c54 -57 136 -146 181
-198 45 -52 92 -106 105 -120 13 -14 62 -70 110 -125 47 -55 116 -129 152
-164 l65 -65 93 89 c51 50 94 92 96 95 2 6 -97 128 -143 175 -60 60 -125 143
-125 157 0 9 10 18 23 22 18 4 39 -12 120 -92 54 -53 116 -123 138 -154 22
-32 44 -58 50 -58 12 0 177 158 190 182 11 20 -43 82 -396 464 -99 107 -202
222 -228 254 -27 33 -56 60 -65 60 -10 0 -42 -21 -72 -46z"/>
<path d="M12988 13030 c-15 -15 -62 -49 -105 -75 -43 -26 -150 -98 -238 -160
-88 -61 -228 -157 -312 -213 -83 -56 -154 -106 -158 -112 -6 -10 181 -220 197
-220 5 0 33 21 64 46 67 54 107 58 112 10 3 -23 -6 -37 -49 -79 -49 -47 -51
-51 -38 -73 14 -23 161 -204 166 -204 9 0 205 229 313 366 36 45 108 136 161
201 53 65 118 151 144 191 46 70 48 74 34 102 -13 28 -151 175 -212 226 -36
30 -46 30 -79 -6z m-5 -307 c-11 -10 -73 -76 -138 -146 -89 -97 -123 -127
-139 -125 -35 5 -32 44 6 80 46 43 281 218 287 213 2 -3 -5 -12 -16 -22z"/>
<path d="M4092 12741 c-22 -17 -52 -45 -66 -63 -62 -80 -258 -352 -263 -364
-3 -8 8 -21 27 -31 18 -10 48 -30 67 -45 20 -16 43 -28 52 -28 9 0 35 18 56
40 21 22 45 40 52 40 20 0 146 -84 226 -150 40 -33 153 -124 251 -202 l179
-141 36 40 c61 67 133 163 129 172 -8 22 -339 289 -526 424 -127 92 -138 116
-77 170 19 17 35 36 35 42 0 13 -115 125 -128 125 -5 0 -27 -13 -50 -29z"/>
<path d="M13657 12244 c-21 -14 -93 -58 -160 -98 -67 -40 -209 -125 -314 -189
-106 -65 -195 -117 -198 -117 -2 0 -43 -23 -90 -50 l-85 -51 25 -47 c52 -97
101 -175 115 -185 12 -7 47 9 141 62 69 39 143 84 164 101 47 37 72 39 81 5 7
-30 -14 -58 -61 -82 -46 -23 -265 -167 -265 -174 0 -15 104 -197 126 -219 l24
-24 42 41 c24 22 68 56 98 74 74 44 149 97 182 127 20 19 29 40 38 93 7 38 15
71 20 74 4 3 19 -4 33 -15 47 -37 68 -40 129 -15 31 13 86 46 123 74 43 32 92
59 136 73 78 25 82 33 48 101 -42 82 -89 137 -117 137 -15 0 -98 -34 -185 -76
-87 -41 -166 -74 -175 -72 -9 2 -18 13 -20 26 -3 16 5 27 28 40 17 9 71 41
118 70 48 29 111 64 139 77 49 23 52 26 43 49 -29 78 -115 216 -133 216 -7 0
-29 -12 -50 -26z"/>
<path d="M3652 12103 c-40 -20 -111 -97 -152 -166 -17 -29 -46 -77 -65 -107
-39 -63 -70 -145 -60 -160 4 -6 34 -24 68 -41 34 -18 73 -39 87 -49 24 -17 85
-53 295 -175 90 -52 201 -120 327 -202 37 -23 74 -43 82 -43 8 0 26 15 40 33
47 56 117 170 113 181 -3 6 -42 33 -88 60 -187 110 -231 140 -241 162 -8 18
-3 39 31 111 45 99 51 143 22 186 -29 45 -157 136 -257 184 -100 47 -147 53
-202 26z m142 -263 c81 -49 119 -91 100 -110 -20 -20 -125 26 -201 90 -14 11
-18 52 -6 63 12 12 23 8 107 -43z"/>
<path d="M8072 11884 c-19 -13 -22 -24 -22 -85 0 -39 3 -69 8 -67 20 10 128
63 131 65 2 2 -1 13 -7 26 -6 12 -13 32 -17 43 -5 19 -30 33 -60 34 -6 0 -21
-7 -33 -16z"/>
<path d="M7875 11821 c-66 -40 -180 -180 -384 -471 -79 -113 -157 -218 -172
-235 -32 -35 -159 -215 -159 -226 0 -4 20 -10 44 -13 48 -8 91 -35 101 -65 3
-11 18 -27 32 -37 27 -17 27 -17 61 22 31 37 85 119 296 453 50 79 128 200
174 270 l83 126 -15 49 c-9 26 -16 65 -16 85 0 55 -10 64 -45 42z"/>
<path d="M8225 11788 c-4 -9 1 -42 10 -74 22 -81 31 -291 16 -392 -7 -45 -36
-155 -66 -244 -30 -90 -66 -215 -80 -278 -15 -63 -29 -125 -32 -137 -7 -32 15
-30 81 7 30 17 67 32 84 34 17 3 41 11 54 19 72 47 459 184 613 217 146 31
410 70 483 70 34 0 78 -6 96 -14 69 -29 147 -119 177 -204 10 -28 8 -35 -15
-63 -25 -29 -25 -31 -10 -67 8 -20 32 -55 53 -77 43 -45 118 -182 145 -265 29
-88 83 -199 116 -237 33 -37 37 -75 9 -81 -21 -4 -102 69 -136 124 -44 71
-236 216 -337 255 -173 67 -388 81 -749 50 -235 -21 -439 -50 -455 -66 -4 -3
36 -4 88 0 52 4 199 7 325 8 226 2 231 2 317 -26 48 -15 96 -37 107 -48 11
-12 29 -49 42 -82 31 -85 64 -152 110 -219 52 -77 51 -84 -11 -80 -48 4 -50 3
-50 -21 0 -14 16 -49 36 -78 24 -36 54 -109 90 -219 76 -234 75 -224 25 -247
-33 -15 -49 -32 -85 -93 -45 -77 -49 -98 -15 -80 11 6 19 7 19 1 0 -5 -7 -11
-15 -15 -8 -3 -15 -14 -15 -25 0 -23 -48 -52 -117 -70 -22 -6 -44 -19 -48 -29
-15 -34 -18 -233 -5 -291 11 -47 14 -53 22 -36 8 19 15 20 76 14 37 -4 88 -3
115 3 51 11 368 6 404 -7 19 -6 24 -2 33 20 7 18 7 31 0 40 -5 6 -9 43 -8 81
0 38 -2 92 -7 119 -6 42 -4 53 10 65 22 19 48 2 55 -36 6 -29 -4 -195 -16
-267 -3 -21 -14 -41 -23 -46 -9 -5 -161 -10 -338 -12 l-323 -4 0 -51 0 -51
389 -5 c214 -3 655 -3 981 0 l592 5 37 31 c20 17 54 42 74 56 20 14 42 38 48
53 7 16 24 33 38 38 56 22 247 -18 641 -134 63 -18 117 -30 118 -25 6 14 28 9
53 -12 29 -26 112 -25 117 1 2 12 -8 18 -37 23 -22 3 -90 31 -150 61 -116 59
-210 95 -245 95 -12 0 -57 14 -101 32 -77 31 -86 32 -225 33 -96 0 -150 -4
-160 -12 -8 -6 -27 -15 -42 -18 -23 -6 -29 -3 -39 19 l-12 26 -364 0 c-218 0
-363 4 -363 9 0 5 4 20 9 33 l9 23 293 3 c162 1 318 5 348 9 51 5 53 5 46 -16
-3 -11 -2 -29 4 -38 7 -13 10 4 9 62 0 44 -5 86 -10 93 -13 15 -145 16 -440 1
-134 -7 -224 -7 -229 -2 -5 5 -12 46 -16 91 -5 65 -3 82 8 86 8 3 115 10 239
16 275 14 400 26 414 40 12 12 21 259 28 701 4 299 5 296 -77 284 -27 -4 -72
-11 -100 -15 -27 -5 -87 -13 -131 -19 -89 -12 -242 -46 -278 -62 -33 -15 -44
-38 -87 -186 -22 -74 -44 -143 -49 -153 -19 -35 -53 -2 -109 106 -29 56 -70
128 -90 160 -56 88 -189 304 -266 434 -108 180 -241 375 -305 445 -40 44 -73
103 -66 120 9 25 -32 194 -61 247 -39 72 -82 102 -152 105 -31 1 -71 6 -89 12
-40 12 -74 1 -95 -30 -15 -21 -21 -22 -104 -16 -130 9 -416 86 -528 141 -49
25 -96 46 -104 48 -11 2 -15 -15 -18 -82 -2 -47 -8 -110 -13 -139 -6 -30 -7
-58 -3 -61 5 -4 55 -12 113 -19 58 -7 138 -19 178 -27 112 -23 380 -66 440
-71 61 -6 87 8 72 37 -6 10 -10 50 -10 89 l0 71 34 0 c19 0 37 -4 40 -9 3 -5
1 -46 -5 -92 l-11 -83 32 -29 c25 -23 38 -27 59 -22 14 4 40 7 56 8 26 2 30
-2 33 -25 3 -24 -1 -28 -35 -37 -21 -6 -69 -12 -108 -15 -83 -6 -275 -31 -360
-47 -90 -17 -186 -46 -293 -90 -53 -21 -100 -39 -106 -39 -10 0 -170 -72 -280
-126 -37 -19 -70 -34 -72 -34 -2 0 1 11 6 25 17 46 138 548 154 640 19 110 11
176 -35 275 -35 78 -84 133 -94 108z m1774 -1559 c34 -66 61 -126 61 -133 0
-8 18 -36 40 -62 22 -27 40 -53 40 -59 0 -5 6 -21 14 -35 7 -14 38 -73 69
-131 30 -58 70 -130 89 -160 42 -65 58 -110 58 -159 0 -41 -28 -85 -46 -72
-23 15 -164 337 -164 374 0 33 -3 36 -36 43 -26 4 -41 2 -54 -10 -15 -14 -18
-14 -30 0 -15 19 3 51 54 91 l34 27 -29 40 c-16 22 -29 46 -29 53 0 7 -8 10
-20 7 -26 -7 -47 11 -55 48 -4 16 -18 58 -31 92 -14 34 -29 80 -34 102 -5 22
-12 51 -16 65 -17 57 26 -4 85 -121z m-605 -192 c118 -121 213 -242 332 -422
26 -38 73 -102 105 -142 33 -39 59 -78 59 -86 0 -37 -278 -52 -300 -17 -5 8
-27 69 -50 135 -22 66 -53 156 -69 200 l-28 80 -82 -3 c-48 -2 -81 0 -81 6 0
14 25 22 92 29 56 6 58 7 58 35 0 37 -20 75 -60 113 -43 40 -99 165 -74 165 4
0 47 -42 98 -93z m1649 39 c4 -25 -4 -471 -13 -722 0 -7 -10 -14 -22 -17 -62
-16 -446 -67 -498 -67 l-59 0 -7 34 c-3 19 -4 133 -2 253 5 202 7 225 32 308
38 124 81 212 109 221 12 4 74 7 137 6 63 -1 153 2 200 7 47 4 92 9 101 10 11
1 18 -10 22 -33z m-652 -292 c13 -16 14 -66 2 -139 l-7 -40 -7 55 c-4 30 -10
74 -14 98 -8 44 2 55 26 26z m-969 -478 c14 -13 63 -174 56 -182 -7 -7 -167
-17 -181 -11 -13 5 -10 20 16 98 27 78 36 94 57 100 37 10 37 10 52 -5z m522
-12 c3 -9 25 -45 49 -81 l42 -65 75 7 76 7 21 -44 c11 -23 24 -54 28 -68 13
-45 75 -148 102 -170 15 -12 35 -18 47 -15 12 3 15 2 9 -1 -8 -3 -13 -25 -13
-52 0 -92 0 -92 -104 -92 -50 0 -96 4 -103 8 -6 4 -25 41 -41 83 -27 68 -128
248 -153 274 -6 6 -76 12 -157 15 l-147 5 -28 88 c-16 48 -26 94 -23 102 4 12
33 15 160 15 132 0 155 -2 160 -16z m-416 -267 c6 -7 18 -35 27 -62 9 -28 35
-83 57 -124 22 -40 34 -69 26 -65 -7 5 -114 11 -238 14 l-225 5 -6 105 c-3 58
-4 110 -2 117 7 17 32 20 199 22 112 1 154 -2 162 -12z"/>
<path d="M8071 11615 c-29 -20 -63 -47 -75 -62 -37 -46 -135 -204 -274 -443
-30 -52 -61 -104 -67 -115 -7 -11 -58 -104 -113 -207 -56 -103 -117 -211 -136
-241 -52 -81 -68 -126 -57 -157 24 -65 23 -110 -4 -110 -15 0 -20 14 -30 78
-6 36 -10 42 -30 42 -33 0 -67 -49 -59 -87 4 -19 1 -33 -8 -39 -36 -27 -136
-46 -383 -74 -148 -16 -369 -41 -490 -54 -121 -14 -344 -37 -495 -51 -412 -39
-517 -65 -601 -145 -82 -78 -153 -286 -169 -500 -14 -188 -28 -628 -22 -728
l4 -84 87 6 c47 3 149 8 226 11 77 4 241 13 365 20 198 13 405 21 1261 51 250
9 241 4 240 137 -1 127 -3 130 -60 124 -73 -8 -411 -25 -1001 -52 -300 -14
-645 -30 -768 -37 -141 -7 -226 -8 -232 -2 -5 5 -7 33 -3 62 5 43 10 53 27 56
12 3 120 9 241 16 121 6 297 17 390 25 94 8 265 19 380 25 116 6 365 20 555
31 190 12 366 19 393 15 l47 -5 0 53 c0 60 -23 135 -46 152 -14 11 -48 8 -69
-6 -5 -4 -55 -7 -110 -8 -124 -3 -387 -17 -785 -42 -543 -36 -803 -50 -912
-50 l-108 0 0 53 c0 28 4 57 8 64 10 16 447 52 902 73 118 5 294 15 390 20 96
6 285 15 420 20 188 8 248 13 259 24 12 13 12 35 2 153 -7 76 -14 138 -14 139
-5 3 -339 -17 -442 -26 -66 -5 -212 -17 -325 -25 -356 -25 -761 -55 -875 -65
-146 -13 -295 -13 -295 0 0 19 88 185 106 201 27 24 44 27 194 39 140 11 355
30 640 55 204 18 382 30 755 51 192 10 297 20 310 29 11 7 53 43 94 81 l74 69
-6 -35 c-4 -19 -25 -65 -46 -102 -22 -37 -53 -109 -70 -160 -29 -88 -31 -101
-30 -238 1 -170 9 -265 38 -450 24 -149 37 -200 53 -200 8 0 9 31 4 98 -3 53
-9 198 -12 322 -5 199 -4 241 15 360 12 74 30 153 42 176 23 48 74 84 130 91
32 5 45 -1 92 -37 31 -23 70 -63 87 -90 37 -57 93 -219 109 -315 6 -39 21 -97
32 -131 20 -62 72 -154 87 -154 18 0 42 -62 44 -112 2 -50 -1 -58 -54 -133
-91 -129 -286 -303 -405 -361 -63 -30 -64 -38 -32 -184 41 -193 71 -290 88
-290 4 0 19 26 35 58 47 97 137 224 211 295 83 81 236 198 322 247 90 51 93
59 95 325 l2 220 -34 49 c-18 27 -56 70 -84 95 -136 123 -178 172 -212 246
-58 126 -48 165 80 305 47 52 95 114 107 137 11 23 27 47 35 53 19 17 18 24
-16 96 -46 98 -40 100 -162 -57 -91 -117 -152 -179 -177 -179 -13 0 -37 10
-54 23 -16 12 -58 36 -91 52 -51 25 -62 35 -64 58 -2 16 1 34 7 41 6 7 20 42
32 77 11 35 56 137 100 226 43 88 79 164 79 167 0 3 44 94 98 203 121 245 174
366 202 463 12 41 34 95 50 120 33 55 46 100 27 100 -7 0 -37 -16 -66 -35z"/>
<path d="M14004 11490 c-109 -22 -500 -197 -629 -282 -94 -61 -143 -150 -130
-236 16 -109 81 -235 148 -286 18 -14 55 -35 82 -47 82 -36 95 -32 494 155
101 47 211 105 245 129 128 88 148 215 62 391 -65 133 -165 197 -272 176z
m119 -274 c9 -23 -26 -60 -80 -84 -26 -12 -151 -69 -278 -128 -216 -101 -288
-124 -310 -102 -19 19 31 52 197 130 446 211 459 216 471 184z"/>
<path d="M3330 11381 c-8 -5 -32 -12 -53 -15 -125 -23 -265 -305 -213 -429 30
-74 62 -102 184 -165 134 -70 319 -147 472 -198 115 -39 160 -40 231 -3 76 38
149 155 175 279 33 162 -27 229 -334 372 -164 77 -304 133 -380 152 -69 18
-63 18 -82 7z m267 -378 c266 -114 333 -151 333 -187 0 -21 -55 -21 -90 -1
-53 30 -255 119 -415 182 -125 49 -142 59 -160 93 -8 16 -15 32 -15 36 0 19
97 -16 347 -123z"/>
<path d="M7105 10788 c-68 -37 -98 -105 -56 -127 14 -8 27 -4 57 19 46 35 70
38 79 10 10 -30 0 -37 -60 -45 -53 -6 -56 -8 -91 -61 -20 -31 -47 -62 -60 -71
-14 -8 -61 -18 -111 -22 -69 -6 -106 -16 -173 -45 -129 -57 -130 -57 -130
-120 0 -80 3 -81 199 -78 225 3 369 17 393 38 10 10 26 42 35 72 12 38 24 57
40 63 35 13 28 25 -33 64 -66 42 -62 55 21 80 35 10 62 26 79 46 30 35 31 48
12 104 -11 31 -23 45 -57 62 -47 24 -111 29 -144 11z"/>
<path d="M14365 10709 c-49 -16 -139 -43 -200 -59 -60 -16 -151 -42 -201 -58
-50 -16 -179 -53 -287 -82 -150 -40 -197 -57 -197 -69 0 -13 68 -221 75 -229
1 -1 27 6 56 17 30 11 95 31 144 45 228 65 287 85 309 105 23 21 46 28 46 13
0 -18 -49 -53 -110 -78 -36 -14 -89 -38 -120 -54 -47 -23 -226 -95 -282 -114
-10 -3 -18 -13 -18 -23 0 -21 36 -163 43 -170 6 -5 116 13 347 57 221 42 322
58 313 50 -8 -7 -297 -93 -483 -145 -130 -35 -150 -44 -150 -66 0 -33 63 -209
74 -209 7 0 39 9 72 19 150 48 305 94 489 146 298 82 377 105 404 116 22 9 23
14 18 62 -6 60 -54 266 -65 285 -12 18 -286 -25 -369 -59 -45 -18 -52 -5 -17
32 31 33 58 47 219 111 55 22 103 43 106 46 10 10 -58 269 -79 306 -10 17 -25
32 -33 33 -7 1 -54 -12 -104 -28z"/>
<path d="M2893 10586 c-32 -65 -143 -476 -143 -528 0 -16 7 -31 18 -37 10 -5
106 -32 214 -60 107 -27 231 -61 274 -75 119 -38 430 -116 463 -116 24 0 31 6
44 39 9 22 24 78 34 126 21 101 25 96 -87 121 -41 9 -140 36 -220 59 -123 37
-257 73 -421 116 -40 10 -51 25 -42 58 7 26 19 26 102 2 199 -58 584 -162 635
-172 47 -8 61 -8 72 3 11 10 74 223 74 249 0 4 -21 10 -46 14 -64 9 -200 45
-494 130 -254 74 -411 115 -441 115 -8 0 -25 -20 -36 -44z"/>
<path d="M8194 10545 c-19 -46 -18 -79 4 -98 28 -25 57 -21 85 13 22 25 24 35
17 61 -13 44 -28 59 -62 59 -24 0 -32 -6 -44 -35z"/>
<path d="M11000 10351 c0 -33 5 -43 30 -61 45 -32 60 -21 60 45 l0 55 -45 0
-45 0 0 -39z"/>
<path d="M10770 10320 c-14 -26 -4 -60 18 -60 25 0 72 47 66 65 -9 23 -71 19
-84 -5z"/>
<path d="M10601 10278 c-17 -45 -17 -72 0 -76 13 -2 18 7 21 40 6 50 -7 72
-21 36z"/>
<path d="M11170 10185 c0 -49 37 -84 152 -145 54 -28 108 -64 121 -80 14 -16
34 -65 46 -112 12 -46 29 -103 36 -128 14 -43 14 -41 9 60 -11 216 -31 257
-164 344 -75 49 -171 96 -197 96 -2 0 -3 -16 -3 -35z"/>
<path d="M11196 9628 c5 -90 8 -210 6 -268 -2 -58 0 -130 4 -160 l8 -55 8 100
c12 161 8 148 53 157 22 5 51 6 63 3 35 -9 24 7 -40 59 -32 26 -60 57 -62 69
-3 12 -13 75 -22 140 -9 64 -19 117 -21 117 -3 0 -1 -73 3 -162z"/>
<path d="M2839 9747 c-97 -27 -139 -68 -179 -175 -52 -138 -47 -252 13 -351
53 -86 74 -94 342 -130 299 -39 481 -56 527 -47 41 7 105 71 139 138 31 60 51
166 46 238 -11 163 -140 272 -326 274 -83 1 -100 -18 -108 -126 -9 -115 -5
-121 75 -147 37 -11 76 -21 87 -21 24 0 85 -36 85 -49 0 -25 -34 -43 -69 -37
-20 4 -79 11 -131 16 -179 17 -465 50 -483 56 -24 8 -40 41 -32 71 7 28 -1 28
167 3 53 -7 83 -8 96 -1 22 11 39 70 48 160 10 88 2 106 -48 119 -71 18 -198
23 -249 9z"/>
<path d="M11680 9570 c0 -18 62 -90 77 -90 10 0 13 9 11 26 -2 18 -16 33 -45
51 -25 14 -43 20 -43 13z"/>
<path d="M14739 9576 c-2 -3 -128 -10 -279 -16 -285 -11 -692 -37 -723 -46
-16 -5 -17 -13 -11 -67 11 -111 23 -189 29 -195 3 -3 166 0 363 8 196 7 380
14 407 14 l50 1 0 -35 0 -35 -165 -7 c-273 -11 -584 -29 -621 -37 l-34 -7 3
-124 c4 -119 18 -245 21 -175 l1 31 248 12 c230 11 549 32 721 47 l74 7 -7
131 c-17 330 -26 466 -32 481 -6 15 -34 22 -45 12z"/>
<path d="M11563 9500 c6 -22 24 -334 31 -553 2 -51 7 -82 17 -91 8 -8 64 -28
126 -45 134 -37 211 -70 244 -104 26 -27 74 -43 84 -27 3 5 -1 25 -9 44 -18
43 -81 77 -246 131 -181 59 -166 44 -174 181 -7 128 2 334 15 334 21 0 231
-151 291 -210 58 -57 69 -73 84 -127 20 -71 34 -82 34 -25 0 98 -58 191 -148
237 -19 9 -57 40 -85 69 -29 29 -87 77 -130 107 -44 30 -93 65 -110 79 l-31
25 7 -25z"/>
<path d="M11236 9124 c-8 -21 -9 -20 42 -27 47 -6 54 4 20 27 -29 21 -54 20
-62 0z"/>
<path d="M11860 9101 c0 -5 9 -30 20 -56 11 -26 20 -60 20 -76 0 -22 5 -29 19
-29 26 0 42 71 25 115 -7 18 -84 60 -84 46z"/>
<path d="M3325 8899 c-110 -5 -310 -13 -445 -18 -136 -6 -254 -13 -264 -17
-16 -6 -18 -19 -15 -125 2 -64 8 -121 12 -126 5 -4 89 -9 188 -11 l179 -3 0
-33 0 -33 -77 -7 c-42 -3 -119 -6 -172 -6 -53 0 -102 -4 -110 -9 -12 -8 -13
-29 -5 -135 5 -69 13 -129 17 -133 4 -4 130 -1 280 6 150 7 378 16 507 20 129
4 241 11 249 15 11 7 13 31 8 120 -3 62 -9 120 -13 129 -5 14 -21 17 -103 17
-53 -1 -144 -7 -204 -14 -59 -6 -111 -9 -117 -6 -5 3 -7 22 -4 42 l6 35 207
13 c126 8 209 17 213 24 9 13 10 212 2 244 -7 25 10 25 -339 11z"/>
<path d="M13756 8750 c-4 -37 -4 -97 0 -133 8 -75 -3 -67 117 -82 40 -5 50
-11 58 -32 16 -43 6 -50 -85 -58 l-86 -7 0 -144 0 -145 33 5 c17 3 82 10 142
16 61 6 211 31 335 55 124 24 289 53 368 66 79 13 151 28 160 35 13 10 17 38
20 172 3 89 2 172 -2 185 -5 20 -16 26 -63 36 -117 23 -632 76 -924 94 l-67 5
-6 -68z m630 -230 c82 0 104 -3 104 -14 0 -28 -28 -34 -180 -37 -143 -4 -155
-3 -158 14 -8 42 5 50 70 43 33 -3 108 -6 164 -6z"/>
<path d="M11271 8688 c-6 -7 -21 -26 -32 -41 -12 -15 -37 -36 -57 -46 -21 -11
-54 -38 -76 -61 -28 -30 -43 -39 -55 -33 -16 8 -905 12 -1203 5 -145 -3 -158
-4 -158 -21 0 -49 58 -54 490 -42 190 6 583 12 874 15 515 4 529 5 549 25 24
23 27 21 -79 46 -66 15 -148 64 -134 78 5 6 82 -12 160 -37 25 -8 125 -34 223
-57 169 -40 180 -42 217 -28 22 8 40 19 41 24 1 18 -65 44 -141 55 -64 10
-241 50 -465 107 -93 23 -141 27 -154 11z m127 -44 c-4 -3 -17 -2 -30 2 -22 7
-22 7 -3 14 20 8 44 -4 33 -16z"/>
<path d="M7265 8659 c-40 -8 -213 -17 -840 -44 -187 -8 -450 -22 -585 -30
-135 -8 -370 -19 -523 -25 -262 -10 -358 -20 -399 -42 -26 -13 -26 -107 0
-109 9 -1 31 -2 47 -3 17 -1 45 -3 63 -4 23 -1 32 -7 33 -19 0 -11 3 -13 6 -5
3 7 25 12 61 12 87 0 282 19 300 29 10 6 24 4 38 -6 13 -8 28 -12 33 -9 12 8
854 21 1066 17 159 -3 195 -10 195 -35 0 -27 -27 -34 -155 -40 l-131 -7 -38
30 c-21 17 -43 31 -48 31 -6 0 -28 -14 -50 -32 -34 -27 -51 -32 -121 -39 -45
-4 -120 -8 -166 -8 -75 -1 -86 2 -113 24 -37 32 -46 31 -113 -4 -43 -23 -77
-32 -165 -41 -101 -12 -112 -11 -129 4 -11 10 -22 29 -26 43 -6 24 -9 25 -51
19 -49 -6 -97 -35 -114 -67 -10 -17 -22 -19 -119 -19 -101 0 -110 2 -137 25
-22 19 -40 25 -74 25 -94 0 -90 6 -90 -152 0 -209 20 -629 31 -650 7 -13 21
-18 50 -18 66 0 97 23 132 98 l32 67 3 228 4 227 31 -1 c63 -1 139 -16 146
-28 4 -7 11 -94 15 -194 7 -213 20 -333 38 -354 16 -20 82 -11 117 15 14 10
37 41 51 68 24 47 25 56 28 271 l3 223 104 0 c100 0 105 -1 109 -22 3 -13 7
-131 11 -263 3 -132 8 -253 12 -268 6 -28 7 -29 52 -22 87 13 109 28 142 99
28 60 31 74 32 183 1 65 -2 158 -7 206 l-8 88 134 -3 133 -3 7 -210 c4 -115
11 -239 15 -275 l8 -65 35 -3 c52 -5 105 14 126 46 37 57 49 129 50 321 1 143
5 185 15 192 12 7 187 13 190 7 1 -2 5 -113 9 -248 4 -135 11 -256 16 -269 7
-22 10 -23 68 -18 34 3 69 9 78 12 10 4 28 40 44 88 25 75 28 97 31 257 1 96
3 179 3 183 0 4 42 6 93 5 l92 -3 8 -270 c5 -148 12 -280 17 -292 8 -19 17
-23 58 -23 58 0 57 -1 143 145 73 124 70 106 50 360 -11 138 -19 183 -80 402
-36 132 -58 190 -74 195 -7 3 -30 1 -52 -3z m-107 -228 c8 -4 12 -19 10 -32
-4 -34 -61 -40 -79 -8 -10 19 -9 25 7 36 20 15 43 17 62 4z m-88 -31 l0 -30
-70 0 c-72 0 -79 5 -60 41 9 15 22 19 70 19 60 0 60 0 60 -30z"/>
<path d="M10505 8379 c-37 -11 -89 -19 -135 -19 -42 0 -80 -4 -85 -9 -16 -13
-218 -31 -356 -31 -113 0 -129 -2 -153 -21 -14 -11 -24 -25 -21 -30 4 -5 61
-9 128 -10 67 0 140 -4 162 -8 l40 -7 -39 -17 c-31 -14 -71 -17 -201 -17 -93
0 -176 -5 -194 -11 -29 -10 -61 -52 -61 -79 0 -6 56 -10 165 -10 134 0 165 -3
165 -14 0 -7 -11 -21 -25 -30 -19 -13 -51 -16 -153 -16 -126 0 -229 -17 -259
-42 -8 -6 -13 -21 -11 -32 4 -26 55 -33 233 -35 66 -1 126 -5 133 -10 18 -11
11 -56 -8 -56 -8 0 -84 4 -168 9 -134 7 -154 11 -163 27 -5 11 -18 19 -29 19
-10 0 -21 4 -25 9 -13 22 -305 34 -416 17 -74 -11 -74 -11 -71 -41 1 -17 7
-49 14 -73 7 -28 9 -82 4 -151 l-6 -108 30 -7 c17 -3 107 -3 199 1 116 4 183
2 215 -6 43 -11 51 -10 82 9 38 24 43 24 249 13 l150 -8 3 -27 3 -28 -73 0
c-40 0 -117 -3 -170 -7 l-98 -6 0 -38 0 -39 208 -2 207 -3 0 -25 0 -25 -137
-6 c-139 -7 -158 -11 -158 -33 0 -37 111 -43 479 -26 406 19 1006 41 1391 51
590 15 747 22 761 36 20 20 4 25 -40 13 -23 -6 -52 -8 -64 -4 -12 4 -49 7 -82
5 -74 -3 -107 16 -87 48 6 12 12 27 12 36 0 18 -36 42 -74 49 -37 7 -48 18
-40 39 14 39 126 28 139 -13 8 -25 25 -26 32 -2 4 17 15 18 119 14 l114 -5 0
44 c0 24 -4 49 -8 56 -5 8 -248 12 -952 15 l-945 3 -1 -71 c-2 -61 -5 -74 -28
-99 -14 -15 -26 -39 -26 -53 l0 -25 -84 6 c-118 8 -149 23 -182 88 -31 62 -64
175 -64 220 0 47 48 217 79 279 50 99 109 129 258 130 82 0 81 1 86 -95 l2
-50 -47 -3 -47 -3 21 -47 c11 -26 28 -67 38 -91 l17 -43 229 -4 c354 -6 1252
-24 1416 -29 204 -6 228 5 214 99 l-7 42 -307 12 c-169 7 -370 17 -447 22
-132 9 -708 31 -897 34 -47 0 -88 3 -91 6 -5 5 8 69 34 173 l12 47 53 0 53 0
11 -57 c27 -135 26 -133 75 -133 43 0 44 1 50 38 3 20 11 59 17 86 l11 49 95
-7 c53 -4 100 -9 103 -12 4 -2 10 -33 14 -68 9 -81 14 -88 61 -84 41 3 43 7
68 121 l6 27 95 0 c51 0 96 -4 100 -10 3 -5 9 -39 14 -74 4 -36 10 -69 14 -72
4 -4 26 -3 49 2 l43 9 3 60 c2 33 7 64 12 68 11 12 193 -12 202 -27 4 -6 8
-31 8 -55 l0 -44 37 6 c47 8 54 16 61 72 2 26 11 49 18 52 7 2 53 -13 102 -35
49 -22 132 -52 183 -67 150 -44 197 -64 217 -93 10 -15 40 -97 66 -182 61
-199 58 -193 67 -140 9 55 -6 216 -26 286 -16 56 -63 127 -95 144 -38 20 -369
130 -453 150 -48 12 -239 34 -462 55 -209 19 -459 44 -555 54 -277 31 -355 33
-425 10z m32 -345 c-3 -3 -12 -4 -19 -1 -8 3 -5 6 6 6 11 1 17 -2 13 -5z
m-1072 -251 c45 -15 130 -21 296 -22 54 0 89 -16 89 -42 0 -5 -54 -9 -122 -10
-171 0 -425 -7 -535 -14 l-93 -6 0 24 c0 13 5 38 11 56 l11 31 146 0 c109 0
160 -4 197 -17z m2298 -185 c12 -6 27 -17 32 -25 8 -11 15 -10 39 2 54 28 77
14 106 -65 34 -92 33 -93 -57 -86 -43 3 -135 9 -204 12 -116 6 -128 8 -137 28
-17 33 -32 98 -25 109 7 12 92 -1 119 -18 11 -7 25 -28 30 -47 9 -31 13 -33
58 -36 56 -4 71 6 62 42 -5 21 -12 25 -53 28 -53 3 -76 26 -54 52 16 19 53 21
84 4z m-1062 -9 c30 -6 72 -14 94 -18 46 -7 65 -34 65 -94 l0 -38 -47 3 c-44
3 -48 6 -73 48 -23 40 -31 46 -68 51 -48 6 -67 21 -59 43 8 19 17 19 88 5z
m321 -9 c43 -5 82 -11 87 -15 6 -3 13 -26 17 -50 3 -25 10 -48 15 -51 5 -3 9
-10 9 -16 0 -6 -6 -6 -15 2 -12 10 -19 10 -27 2 -7 -7 -33 -12 -59 -12 -39 0
-51 5 -68 26 -11 14 -23 34 -26 44 -3 11 -14 22 -25 25 -30 9 -71 46 -64 57 4
6 21 7 43 3 20 -3 71 -10 113 -15z m285 -8 c15 -8 33 -7 68 3 61 19 125 20
125 2 0 -21 -22 -37 -52 -37 -26 0 -28 -2 -28 -44 0 -47 -20 -63 -55 -44 -11
7 -21 6 -28 -1 -6 -6 -35 -11 -64 -11 l-53 0 -6 42 c-8 49 -43 88 -79 88 -14
0 -25 5 -25 10 0 13 170 6 197 -8z m-708 -23 c16 -46 14 -99 -4 -105 -8 -4
-35 -3 -60 0 -44 7 -44 7 -50 54 -4 26 -9 54 -11 63 -4 14 5 17 55 18 58 1 59
0 70 -30z"/>
<path d="M8383 8308 c-30 -6 -53 -16 -53 -23 0 -7 -11 -16 -25 -19 -14 -4 -58
-22 -98 -41 -59 -28 -83 -47 -127 -100 -122 -146 -154 -237 -148 -418 4 -111
7 -128 35 -189 37 -79 100 -158 126 -158 10 0 45 -14 78 -31 l60 -32 127 7
c70 3 210 10 312 15 102 5 306 10 453 10 246 1 357 10 357 30 0 4 -17 5 -37 3
-21 -2 -150 13 -286 32 -137 20 -265 36 -285 36 -20 0 -66 6 -102 15 -36 8
-83 18 -105 22 -49 10 -56 24 -86 158 -24 111 -28 241 -10 297 18 54 114 141
181 163 30 10 77 29 104 43 54 26 172 51 248 52 l48 0 -6 -74 c-7 -82 -4 -88
54 -88 54 0 72 28 72 112 0 74 13 97 50 85 18 -6 20 -14 20 -91 0 -82 1 -85
26 -94 14 -6 41 -10 60 -10 46 0 57 29 56 143 -2 84 -1 87 21 88 36 1 94 26
77 33 -25 10 -523 12 -705 2 -156 -8 -173 -7 -205 9 -42 22 -207 29 -287 13z
m322 -78 l50 -18 -138 -1 c-80 -1 -147 -6 -159 -12 -13 -7 -18 -7 -14 -1 3 6
-3 13 -14 17 -11 3 -20 13 -20 21 0 23 229 18 295 -6z m-238 -83 c24 -10 28
-23 15 -43 -8 -13 -305 -14 -318 -1 -11 11 6 24 51 41 47 17 217 19 252 3z
m-97 -172 c0 -13 -104 -25 -222 -25 -52 0 -68 3 -68 14 0 20 5 21 155 22 100
1 135 -2 135 -11z m-163 -114 c101 -5 118 -8 121 -23 5 -27 -37 -38 -149 -38
-116 0 -139 8 -139 51 0 26 3 29 25 23 14 -3 78 -9 142 -13z m113 -178 c-1
-13 -39 -19 -157 -26 l-113 -7 0 24 0 24 135 -4 c74 -2 135 -7 135 -11z m31
-134 c5 -8 9 -22 9 -31 0 -15 -10 -18 -67 -18 -37 0 -93 -5 -124 -12 -70 -14
-89 -3 -89 50 l0 35 131 -5 c95 -4 134 -10 140 -19z m195 -150 c16 -27 -20
-34 -184 -37 -133 -3 -171 -1 -186 11 -41 30 -10 37 179 37 122 0 186 -4 191
-11z"/>
<path d="M3595 8194 c-49 -18 -129 -42 -176 -54 -71 -18 -342 -107 -679 -224
-47 -16 -66 -28 -68 -42 -1 -10 11 -93 28 -184 22 -120 35 -169 47 -179 19
-14 220 -11 503 9 74 5 217 9 317 10 100 0 193 4 207 10 22 8 24 14 20 47 -16
120 -28 182 -40 212 l-14 33 -57 -8 c-99 -13 -106 -12 -117 18 -16 45 11 74
85 87 35 6 67 15 72 20 8 8 -19 245 -32 267 -4 7 -36 0 -96 -22z m-247 -391
c3 -31 1 -33 -30 -34 -18 0 -51 -2 -73 -4 -190 -16 -225 -17 -225 -8 0 15 43
31 117 44 37 7 81 18 98 25 16 8 48 13 70 11 37 -2 40 -4 43 -34z"/>
<path d="M13693 8083 c-4 -10 -8 -72 -8 -138 l0 -120 115 -7 c63 -4 156 -11
205 -15 89 -8 90 -8 93 -35 l3 -28 -214 0 -215 0 -6 -23 c-13 -52 -19 -214 -8
-221 17 -10 258 -33 482 -46 240 -13 451 -28 508 -36 38 -5 43 -3 52 20 15 39
34 246 24 256 -5 5 -87 13 -181 18 -95 4 -175 11 -178 14 -4 4 -4 21 0 38 l7
32 182 -4 181 -3 8 129 c6 90 5 132 -3 140 -6 6 -59 12 -128 13 -134 3 -645
21 -805 29 -97 5 -108 3 -114 -13z"/>
<path d="M8735 8008 c-50 -17 -96 -58 -116 -102 -36 -80 -13 -300 40 -375 43
-60 103 -62 165 -5 35 33 29 50 -17 46 -50 -5 -75 12 -98 65 -37 86 -19 239
33 286 13 11 37 17 66 17 44 0 45 1 28 19 -16 18 -16 19 11 29 l28 9 -40 12
c-47 13 -60 13 -100 -1z"/>
<path d="M10147 7938 c-30 -39 -57 -108 -57 -147 0 -39 52 -181 69 -190 9 -5
33 -11 54 -14 29 -5 37 -2 37 10 0 8 14 28 31 44 l31 29 -4 125 c-4 145 -13
164 -90 172 -42 5 -47 3 -71 -29z"/>
<path d="M12809 7484 c-90 -65 -200 -143 -244 -174 -150 -107 -131 -102 -625
-166 -195 -25 -420 -54 -500 -65 -194 -25 -289 -24 -440 5 -69 13 -177 31
-241 41 l-116 17 -84 -40 c-46 -22 -118 -57 -159 -76 -41 -20 -100 -49 -130
-66 -38 -21 -68 -30 -100 -30 -25 0 -50 -4 -56 -9 -5 -5 -42 -5 -84 0 -41 4
-309 13 -595 19 -286 6 -630 15 -765 21 l-245 10 -55 33 c-59 36 -71 41 -325
153 -93 41 -192 84 -218 96 l-48 22 -44 -50 c-25 -28 -82 -101 -127 -164 -46
-62 -99 -135 -118 -161 -67 -92 -231 -316 -292 -400 -129 -177 -172 -237 -205
-288 -41 -64 -41 -64 -115 54 -29 47 -82 132 -118 189 -36 57 -77 124 -92 149
-16 27 -35 46 -45 46 -23 0 -292 -114 -416 -176 -92 -46 -97 -47 -135 -36 -22
7 -81 39 -131 72 -87 57 -123 71 -135 51 -3 -4 -27 -16 -53 -26 -26 -9 -96
-40 -156 -68 -59 -28 -110 -48 -113 -45 -3 4 22 59 55 124 34 65 61 125 61
134 0 9 -12 35 -27 57 -34 50 -308 376 -352 417 l-31 30 -52 -25 c-29 -13 -79
-39 -110 -57 -32 -18 -75 -39 -95 -46 -44 -16 -312 -153 -396 -203 -31 -19
-57 -38 -57 -43 0 -5 24 -14 53 -20 64 -13 437 -80 449 -80 22 0 66 -174 118
-470 29 -164 67 -330 76 -330 2 0 75 34 161 76 87 42 192 89 233 106 41 16
115 50 165 75 l90 46 75 -11 c41 -7 98 -15 125 -18 119 -14 530 -96 537 -107
4 -7 35 -75 69 -152 34 -77 75 -168 90 -202 15 -35 33 -63 39 -63 16 0 217 93
370 171 l136 69 206 213 c232 240 239 244 453 320 72 26 202 72 290 104 l160
58 375 0 c206 0 587 -1 845 -2 259 -1 481 -1 494 0 13 1 26 -3 28 -10 4 -10
-71 -67 -351 -266 -45 -31 -82 -62 -84 -67 -12 -34 145 -14 262 34 45 18 106
41 136 51 30 10 102 38 160 63 58 24 155 64 215 87 61 23 211 84 335 134 247
101 254 102 540 116 246 12 423 34 526 64 55 16 137 39 184 51 47 11 125 35
173 52 48 17 90 28 94 24 14 -14 -97 -155 -402 -508 -224 -259 -325 -407 -328
-480 -2 -28 1 -33 20 -33 33 0 277 195 503 400 72 66 152 137 178 158 45 37
255 144 612 312 91 43 175 85 188 93 27 17 28 42 7 155 -8 45 -32 192 -53 326
-20 135 -42 246 -48 248 -6 2 -84 -49 -175 -113z"/>
<path d="M13592 7357 c-21 -26 -92 -204 -92 -230 0 -4 19 -16 43 -27 50 -23
341 -135 377 -145 14 -4 68 -27 121 -51 53 -24 161 -65 240 -93 79 -27 152
-53 161 -56 27 -10 63 34 83 101 9 32 25 75 35 94 10 20 15 41 12 46 -4 6 -86
41 -182 79 -96 37 -253 99 -347 136 -161 64 -302 115 -400 145 -32 10 -44 10
-51 1z"/>
<path d="M3193 7321 c-181 -45 -293 -106 -330 -180 -17 -34 -19 -49 -11 -98
14 -91 133 -423 151 -423 3 0 45 15 93 33 200 75 436 157 683 238 106 34 195
69 198 76 3 7 -8 57 -25 111 -17 53 -33 107 -37 120 -8 27 -29 28 -87 4 -24
-10 -72 -27 -108 -36 -35 -10 -88 -29 -118 -43 -85 -38 -105 -29 -151 70 -43
93 -73 125 -128 138 -48 11 -44 11 -130 -10z m91 -247 c9 -3 16 -17 16 -30 0
-19 -8 -26 -52 -39 -28 -8 -71 -24 -94 -36 -34 -16 -47 -18 -63 -9 -26 14 -26
30 0 64 30 39 145 69 193 50z"/>
<path d="M13432 6933 c-38 -100 -53 -156 -44 -164 4 -3 50 -23 102 -43 52 -21
100 -41 105 -45 6 -4 49 -24 97 -45 90 -39 109 -59 84 -85 -14 -13 -19 -13
-51 2 -20 9 -40 17 -45 17 -14 0 -292 120 -308 133 -7 5 -14 8 -16 6 -16 -16
-98 -197 -103 -223 -5 -29 -1 -35 28 -53 40 -24 133 -65 354 -158 88 -37 198
-84 245 -105 47 -20 110 -45 140 -55 30 -10 82 -31 116 -46 34 -16 65 -29 71
-29 13 0 26 29 80 180 25 69 56 154 69 190 54 149 19 212 -169 303 -127 61
-139 64 -182 37 -32 -20 -40 -21 -60 -10 -14 7 -37 38 -52 68 l-28 54 -105 38
c-58 20 -143 54 -188 74 -46 20 -90 36 -97 36 -8 0 -27 -34 -43 -77z m636
-458 c53 -25 72 -39 72 -54 0 -31 -18 -35 -81 -16 -64 20 -99 46 -99 74 0 41
16 40 108 -4z"/>
<path d="M3696 6569 c-197 -99 -364 -178 -372 -175 -7 3 -30 28 -50 56 -43 60
-55 61 -144 16 -58 -30 -65 -36 -63 -61 2 -28 197 -424 235 -477 11 -16 26
-28 35 -28 24 0 173 81 173 94 0 7 -14 25 -30 41 -25 24 -30 37 -28 65 2 28 9
38 35 50 18 8 178 88 355 176 281 141 323 165 326 186 5 39 -85 239 -106 237
-4 0 -168 -81 -366 -180z"/>
<path d="M8207 4319 c-290 -24 -449 -122 -524 -325 -23 -61 -26 -91 -34 -268
-4 -116 -4 -208 1 -222 l10 -24 284 0 c161 0 296 4 310 10 l26 10 0 131 c0
155 15 254 41 280 25 25 96 25 125 1 52 -44 58 -73 59 -282 0 -190 -1 -197
-26 -245 -14 -28 -36 -55 -50 -62 -13 -6 -81 -16 -152 -22 -70 -5 -132 -13
-137 -16 -6 -4 -10 -70 -10 -165 0 -126 3 -162 15 -173 9 -9 55 -20 121 -28
122 -14 153 -30 197 -100 40 -65 49 -149 45 -422 -2 -194 -6 -237 -20 -263
-29 -52 -94 -68 -163 -40 -19 8 -36 16 -37 18 0 2 -4 139 -7 306 -5 262 -8
305 -22 315 -12 9 -100 11 -319 9 l-302 -3 5 -207 c10 -372 60 -569 174 -673
74 -69 239 -141 373 -165 133 -23 373 -15 485 15 188 51 316 145 375 275 73
160 94 307 88 617 -5 246 -14 294 -71 409 -27 55 -42 72 -99 110 -37 25 -69
51 -72 58 -4 8 7 20 25 30 138 76 186 174 196 402 9 193 -30 356 -114 483 -87
131 -213 192 -440 216 -156 16 -251 19 -356 10z"/>
<path d="M9948 4273 l-377 -3 -5 -33 c-10 -63 -56 -403 -66 -492 -6 -49 -24
-182 -40 -295 -34 -240 -65 -480 -80 -635 -16 -156 -97 -758 -120 -896 -11
-64 -20 -130 -20 -146 l0 -30 92 -7 c50 -3 198 -6 329 -6 196 0 240 3 252 15
18 17 24 62 37 261 5 83 13 159 16 169 7 16 17 17 108 11 55 -3 104 -10 109
-15 4 -4 12 -64 18 -132 16 -201 26 -289 34 -297 4 -4 290 -7 636 -7 739 0
663 -15 684 136 21 152 86 640 91 687 5 43 19 55 28 25 3 -10 15 -76 26 -148
12 -71 41 -211 65 -310 24 -99 54 -225 67 -280 l23 -99 35 -7 c19 -4 155 -8
303 -9 l267 -1 0 25 c0 42 -77 387 -130 586 -11 41 -33 129 -49 195 -16 66
-49 199 -74 295 -49 191 -81 346 -73 359 3 4 28 120 56 257 28 137 76 368 106
514 29 146 54 276 54 290 l0 25 -262 -3 c-145 -1 -268 -4 -274 -6 -6 -2 -19
-44 -28 -93 -10 -48 -27 -126 -38 -173 -12 -47 -30 -141 -42 -210 -17 -98 -25
-125 -38 -128 -22 -4 -27 16 -78 288 -23 118 -46 239 -53 268 l-12 53 -314 -1
c-173 0 -316 -2 -318 -4 -6 -6 75 -417 117 -591 21 -88 50 -220 65 -294 14
-74 33 -151 42 -173 16 -40 15 -53 -12 -183 -18 -82 -67 -381 -90 -545 -9 -63
-29 -194 -46 -290 -16 -96 -34 -205 -40 -242 -9 -60 -22 -88 -34 -76 -2 2 -24
138 -49 303 -26 165 -55 356 -66 425 -18 114 -52 357 -65 470 -3 25 -23 158
-45 295 -21 138 -48 320 -60 405 -12 85 -32 221 -46 301 -13 81 -24 158 -24
173 0 24 -3 26 -49 26 -26 0 -75 1 -107 3 -32 2 -229 2 -436 0z m144 -739 c30
-385 41 -509 59 -647 11 -87 19 -177 17 -200 l-3 -42 -69 -8 c-38 -5 -84 -6
-103 -2 -30 5 -33 9 -33 43 0 52 25 271 55 479 14 98 31 244 37 326 14 168 29
188 40 51z"/>
<path d="M12577 4268 c-18 -11 -17 -2502 0 -2519 9 -9 99 -14 333 -17 268 -4
320 -2 320 9 2 68 -1 2524 -3 2526 -7 6 -640 7 -650 1z"/>
<path d="M845 4260 c-12 -20 -8 -471 4 -483 8 -8 72 -14 184 -17 95 -3 178 -9
185 -13 9 -6 12 -217 12 -997 0 -885 2 -990 16 -1004 13 -14 57 -16 329 -16
292 0 314 1 319 18 3 10 5 443 4 962 -1 520 2 969 6 998 l8 53 179 -2 c98 -2
182 1 186 5 5 4 8 119 8 254 l0 247 -717 3 c-472 1 -719 -1 -723 -8z"/>
<path d="M2436 4218 c-3 -29 -6 -598 -6 -1264 l0 -1212 23 -6 c38 -10 879 -7
1014 4 317 26 426 94 479 302 25 96 33 927 10 1017 -40 155 -117 253 -227 289
-114 37 -170 44 -389 49 -118 3 -221 9 -229 13 -10 5 -13 38 -12 146 1 76 4
171 7 209 l6 70 309 -3 309 -3 0 220 0 221 -644 0 -643 0 -7 -52z m824 -1246
c32 -15 36 -22 43 -72 12 -84 3 -598 -12 -643 -10 -31 -21 -43 -56 -58 -24
-10 -64 -22 -89 -25 l-46 -7 0 410 c0 225 3 413 8 417 11 12 113 -3 152 -22z"/>
<path d="M4209 4153 c-5 -1106 -3 -2392 3 -2405 8 -17 34 -18 323 -18 172 0
320 3 328 6 13 5 14 72 9 513 -3 279 -2 520 2 536 6 25 10 27 39 21 81 -16
143 -91 153 -184 3 -26 9 -195 13 -377 8 -296 11 -337 30 -397 12 -36 30 -77
40 -90 l19 -23 281 -3 c187 -2 287 1 301 8 25 14 25 46 0 88 -32 52 -41 160
-44 510 l-2 327 -28 68 c-60 144 -132 211 -254 237 -26 6 -53 15 -61 19 -23
15 -4 40 36 46 147 24 257 138 292 304 6 30 14 192 16 365 6 364 10 417 30
455 8 16 17 47 21 70 l7 41 -296 0 -296 0 -25 -42 c-48 -84 -56 -136 -67 -423
-12 -336 -23 -482 -39 -518 -9 -17 -34 -38 -73 -57 -69 -34 -82 -36 -91 -14
-3 9 -6 249 -6 535 l0 519 -330 0 -330 0 -1 -117z"/>
<path d="M13785 4258 c-2 -7 -6 -132 -9 -278 -12 -628 -96 -1256 -217 -1627
-22 -67 -17 -63 -146 -108 -10 -3 -13 -107 -13 -474 l0 -469 209 -7 c114 -4
218 -4 230 0 20 6 21 12 21 144 0 76 3 172 6 214 l7 77 501 0 c276 0 511 -3
524 -6 22 -6 22 -7 22 -210 0 -111 3 -205 8 -207 14 -10 321 -19 384 -13 l65
7 7 458 c4 251 4 465 1 473 -4 10 -24 19 -48 23 -23 4 -52 13 -64 21 l-23 14
-2 988 -3 987 -728 3 c-577 2 -728 0 -732 -10z m799 -570 c4 -42 4 -372 0
-745 l-9 -668 -159 -3 c-88 -1 -163 1 -168 6 -4 4 3 69 16 143 69 375 126 900
126 1164 0 61 3 127 6 148 l7 38 86 -3 86 -3 9 -77z"/>
<path d="M6555 3670 c-4 -6 -13 -50 -20 -98 -8 -48 -39 -238 -70 -422 -49
-287 -56 -341 -46 -376 5 -23 17 -91 26 -150 16 -108 60 -387 92 -577 9 -55
23 -105 30 -113 11 -10 45 -14 132 -14 147 0 208 8 216 28 7 20 -19 225 -55
427 -61 338 -70 460 -45 591 20 106 92 574 100 652 l7 62 -180 0 c-114 0 -183
-4 -187 -10z"/>
<path d="M15514 3649 c3 -19 8 -68 11 -109 4 -41 18 -145 31 -230 14 -85 34
-213 45 -285 25 -159 26 -259 5 -390 -19 -117 -91 -598 -101 -669 l-7 -49 174
5 c178 5 203 9 212 34 7 17 66 388 96 599 32 225 29 321 -25 665 -66 427 -65
424 -75 439 -6 11 -50 15 -190 19 l-181 5 5 -34z"/>
<path d="M16084 3669 c-6 -10 54 -410 86 -575 16 -84 33 -183 36 -222 7 -77 8
-69 -72 -586 -30 -192 -52 -351 -49 -354 3 -4 84 -7 180 -8 l174 -2 10 31 c16
50 58 290 95 547 54 367 53 335 7 575 -22 116 -49 275 -61 355 -29 206 -37
239 -64 245 -30 7 -337 1 -342 -6z"/>
<path d="M7126 3658 c-7 -27 -97 -598 -112 -713 -18 -138 -11 -245 31 -481 13
-77 34 -193 45 -259 35 -196 49 -267 54 -272 3 -3 80 -6 173 -7 l168 -1 3 37
c4 47 -19 225 -64 493 -20 121 -37 263 -40 335 -5 115 -2 145 36 365 53 308
67 398 72 460 l3 50 -183 3 c-141 2 -183 0 -186 -10z"/>
</g>
</svg>
